/* XPM */
static char *a71bb1bc1386466ce7b25212462c3643Rc1bHCHYOY8ency2[] = {
/* columns rows colors chars-per-pixel */
"64 64 185 2 ",
"   c black",
".  c #2F170C",
"X  c #331B0E",
"o  c #3B1D0E",
"O  c #341D12",
"+  c #3C1F11",
"@  c #3E200F",
"#  c #3D2213",
"$  c #411F0F",
"%  c #442514",
"&  c #492715",
"*  c #452817",
"=  c #4B2917",
"-  c #442718",
";  c #4B2718",
":  c #462A1A",
">  c #4C2C1A",
",  c #522E1A",
"<  c #582E1A",
"1  c #522C17",
"2  c #55311D",
"3  c #5B331E",
"4  c #62341E",
"5  c #553421",
"6  c #5B3621",
"7  c #563823",
"8  c #5D3924",
"9  c #5D3C28",
"0  c #613620",
"q  c #643B24",
"w  c #6A3E26",
"e  c #653E29",
"r  c #6A3F28",
"t  c #713E26",
"y  c #5E412C",
"u  c #6C4027",
"i  c #65412B",
"p  c #6C422B",
"a  c #6A482F",
"s  c #714127",
"d  c #73452C",
"f  c #79462C",
"g  c #75482E",
"h  c #7A492E",
"j  c #674530",
"k  c #6D4731",
"l  c #6E4931",
"z  c #714730",
"x  c #754B32",
"c  c #7C4D32",
"v  c #774E38",
"b  c #6D5138",
"n  c #775237",
"m  c #7D5136",
"M  c #775139",
"N  c #7D553B",
"B  c #7E5A3E",
"V  c #7F6347",
"C  c #814B2E",
"Z  c #814E32",
"A  c #835236",
"S  c #8A5436",
"D  c #845539",
"F  c #8A5639",
"G  c #85593D",
"H  c #8C5A3C",
"J  c #925336",
"K  c #925639",
"L  c #935C3D",
"P  c #9A5E3E",
"I  c #96603F",
"U  c #9B603F",
"Y  c #855D41",
"T  c #8C5E41",
"R  c #945E40",
"E  c #9A5F40",
"W  c #836143",
"Q  c #8D6244",
"!  c #8D6B4B",
"~  c #966546",
"^  c #946243",
"/  c #996242",
"(  c #9D6242",
")  c #996444",
"_  c #9E6645",
"`  c #9B6444",
"'  c #9C6847",
"]  c #956749",
"[  c #996749",
"{  c #956A4A",
"}  c #9E6A4A",
"|  c #9C6B4A",
" . c #93714F",
".. c #9D704F",
"X. c #936F53",
"o. c #87755B",
"O. c #9C7151",
"+. c #9D7A57",
"@. c #A16646",
"#. c #A26645",
"$. c #A06947",
"%. c #A36846",
"&. c #A96847",
"*. c #A56B49",
"=. c #A46C4B",
"-. c #AB6D4A",
";. c #AA6E4C",
":. c #AA6D4B",
">. c #B36E4C",
",. c #A5714E",
"<. c #AB714E",
"1. c #B1724E",
"2. c #B8734D",
"3. c #A47352",
"4. c #A97754",
"5. c #AB7452",
"6. c #A67855",
"7. c #AD7955",
"8. c #AB7C59",
"9. c #A47E5B",
"0. c #B37652",
"q. c #B97652",
"w. c #B37A56",
"e. c #BB7B55",
"r. c #B47D59",
"t. c #BA7E59",
"y. c #9B7B62",
"u. c #C27B55",
"i. c #C17D59",
"p. c #20C524",
"a. c #AC835C",
"s. c #B5825D",
"d. c #BB825C",
"f. c #AD8663",
"g. c #AF8E6B",
"h. c #AC8B67",
"j. c #B48560",
"k. c #BC8661",
"l. c #B48964",
"z. c #BC8B64",
"x. c #B28C6A",
"c. c #BF8F68",
"v. c #BF906A",
"b. c #B89570",
"n. c #BF997A",
"m. c #C2835D",
"M. c #C8855D",
"N. c #C6885D",
"B. c #C08760",
"V. c #C48B63",
"C. c #CB8B63",
"Z. c #C68F69",
"A. c #C79166",
"S. c #CC9166",
"D. c #C5936B",
"F. c #CB946B",
"G. c #CE996E",
"H. c #D39167",
"J. c #D89167",
"K. c #D3946A",
"L. c #D39A6F",
"P. c #DA996D",
"I. c #D8956C",
"U. c #C59771",
"Y. c #CD9B71",
"T. c #D39D72",
"R. c #DC9D72",
"E. c #CEA077",
"W. c #CEA57C",
"Q. c #D4A275",
"!. c #D9A275",
"~. c #D5A77A",
"^. c #D7A87C",
"/. c #DCA97B",
"(. c #E4A67B",
"). c #E1A97D",
"_. c #E2A074",
"`. c #D9AA80",
"'. c #D3A982",
"]. c #DCB485",
"[. c #DDB991",
"{. c #E3AA83",
"}. c #E3B485",
"|. c #E5B788",
" X c #EBC090",
/* pixels */
"Z c p 6 q d c A c x L / 3.5.;.' ~ L %.<.} H ( :.@.L Z ^ *.;.( :.q.0.^ G G ~ L L S m x m x N m c h H A S R / H F _ / R %.<.:.%.^ ",
"d x D A d p q p x K L H c Z c h g d p q 2 w A A C A Z w 0 d p g h d p 6 0 h F / %._ K Z A D c h u q p q 8 q u h d d g p h f d p ",
") ) H F K H } ) _ E h d f S S K K R { Q x x c c F L _ A F @.*.*.| } 4.| Q T T Q ^ ~ ] O.4.,.7.=.=.,.G c p w c c c H L L H c A H ",
"p p d d A x x A L *.( ;.*.P K K L ^ ^ D c c d s g d w q r 3 2 e G ~ %.=._ H F H G N x x D H H H D D x c c c S H L *.( S d w p d ",
"; * % & p p q d Z Z f F Z A c d x a i 8 p A F H L ) _ A c c p v Y ~ H x D L _ / } ^ ,.} } 7.=.4.^ x 2 6 x H ^ G D G H x e i 9 6 ",
"8.8.8.<.w.w.i.m.m.<._ L A H D _ s.z.j.4.<.w.s.7.4.4.H p r F L 3.| ~ ~ { ^ F L / _ ( L c m ^ ' ) I L L ^ =.%.4.8.f.7.' F ^ 4.w.7.",
"x x c p q q 6 6 w f S C f w 4 0 d p 6 2 2 > ; # % % # % # % = 3 w h A g 2 & = & % , 2 , 2 0 0 0 0 u u 8 , & , 3 u p 0 0 w w w d ",
"g w p q w 8 & % , w f 0 2 2 1 = , 5 > % * > , , 0 p p d q q 8 3 8 p g c c e 6 > 2 2 , 6 p g q 8 3 0 q q 0 8 3 = & 1 , 3 0 d h d ",
"p 6 2 2 5 2 q q 3 2 2 2 6 p p x F L H S F A g d c F / @.L S A h p 8 q q 2 2 u g x p 8 q r q 2 : > 8 5 > & & 3 8 2 q 0 0 r d p q ",
"u p 3 5 2 p c p 0 = # . X > 3 q q 2 2 8 w p 0 , = 8 0 0 0 = 1 3 ; # # % % 2 p A n y 9 6 0 6 5 5 8 p g h w 4 3 4 3 q 0 8 6 6 > , ",
"> 2 2 % % 8 q p d p d d 0 2 , 2 2 6 2 2 > & 3 w 3 0 0 0 w 0 , > 2 , 3 q h g D ^ y.o.W Y O.7.D.Y.T.Y.d.<.:.K f p p A m T G p % # ",
", 3 3 q d A m q ; ; 3 0 q 0 8 8 5 = % + % , 3 0 w C Z 0 3 2 q d Z c u q 8 = & 8 w 3 2 & % , w d c p 3 3 w d 3 & @ o o = , 8 8 6 ",
"8 w p c c r 6 2 > ; 8 2 5 w d c D F D g c L L K U K K F c d h A Z s q q p x p & % ; % X . o % % % + X # = 2 = & % & % % & 1 3 3 ",
"0 q q > > ; - > 8 q A A p 6 > 2 p A / F p 8 ; ; 5 5 - 3 0 p p 8 5 p A d q q 6 5 y a p i i a q 2 1 & 9 a n M p 1 3 2 8 6 8 q p w ",
"h L ) ' =.~ T x m H D ^ H A Q +.} ^ x 8 2 2 0 g d d d d A R D x V  .) K A c c H ^ F F x p p D L ( S D D H H c d c h A A H Q G x ",
"d A D R _ L L F H x A %.:.H d l p q 8 8 x D d q 8 d A / H g d q p Z L L A w q c G Q ~ H _ <.M.M.P.C.q.-.L H L P H x c A H =.) h ",
"K ;.q.#.%.3.5.<.q.E f c S L L ( L K c h A / F d d Z _ C.q.0.5.) F H @.E P / =.4.f.h.9.{ { =.( ^ 4.w.t.e.%.} ) =.4.' ^ ,.} ~ ^ A ",
"p g c Z ( #.-.>.@.P L 8.w.d.D.k.V.e.&.J K 5.k.s.w.t.i.i.e.G.}. X|.^.V.t.q._ c x x x p 8 6 p x p x i 8 q p k G H H A A L L F Z c ",
"M { s.0.q.2.u.u.-.1.e.G.S.j.x.s.7.0.#.K P @.q.q.e.C.e.-.e.m.7.7.8.a.z.z.K.N.V.A.D.k.k.%.0.T.K.C.m.S.Y.G.S.d.V.d.7.r.( K / F m x ",
"Z H G Z S K K K S g g H c 0 1 0 d h w q A @.1./ c p p p A   A p 0   e p i q w p p 8 8 5 8 x F ) R ) ~ ^ ^ ^ ;.<.} ' ^ F x d g d ",
"2 e x F F A A c p 2 > 8 p m m H x d x x H ;.%._ ) :.^ p p               *.@._ / c p   p q e p d g x p q p c F A x x d g x p 6 ; ",
"6 8 8 e p m } =.H H 0.7.;.3.) ^ D L _ L A F ^ ^ ^ ;.M.%.  p.p.p.p.p.p.p.  c D F A F   A A d d A L H F A A h p q r x Z Z A A p 6 ",
"F c w q q 6 5 g F c c g q q 8 p m H F R / A g A ^ ) H   p.  p.p.p.p.  p.p.  A c G   F m a 9 a x H R P ( -.U U A A Z h f Z F L / ",
"0 < ; 7 e 8 6 e w 0 0 w Z H H H H Q T ^ ) g c ' 3.=.L   p.p.p.p.p.p.p.p.p.        l a a x l B n B x 0 3 d w 1 % = 3 0 0 t 0 0 q ",
"3 = % % 2 1 = = , 8 u c A Z w 2 > , , > , 3 , , 3 3 3   p.p.p.    p.p.p.p.  & % # % % & % o % , 3 8 3 q g p 3 > , = 2 3 2 3 8 3 ",
"1 , 1 6 8 2 2 8 3 3 w w w d q 8 0 0 4 0 1 & & % & 2 3   p.p.p.p.p.p.p.p.  5 : > 7 p c g u 0 w p c d g A A x g x c A D x 8 > , 0 ",
"S F H A m n b x g w h c A / d.k.q.:.%.T q 0 p m B N N G                 x G Y W W G T ^ L H F h w w g D =.r.,.5.7.=.=.| | | ' @.",
"p d x d q 2 8 i p p w f A F K S c p 0 , - , 3 , % > 5 8 8   2 6   p g   c p g x p p c / / L / R c d c ^ =._ H F L / =.( 0.e.' D ",
"G Q D G ~ H D ' r.q.-.&.%.,.,.^ ' c q 6 8 r q q p L %.=.    F     H     Q N Q 3.#.L A A _ _ ;.1.*./ E _ ^ H T Z H H ^ H ,.4.,.3.",
"R D c L L Z c d F H H A c F ) m z D c d 0 2 p H F A A S H L c c w D } =.5.=.%.' L F D H _ _ @.-.:._ H L H L L _ 4.4.F c H &.1.<.",
"d c c F H F L K F ( H H ^ A g 3 q F L Z c S L _ %.:.@.F c H F c p p c ^ <.;./ A p p F L H H @.:.@.@.H D c c =.<.=.=.) D A A c c ",
"' Q f q x [ w.d.d.p.p.p.p.%.J K =.3.k.V.d.i.V.z.r.s.w.6.x.D.m.m.!.E.j.<.1.m.4.| ] L E E Z K ;.0.<.3.,.G D ^ *.*.0.m.V.w.0.E P #.",
"7.r.d.k.t.r.=.p.p.x l e A p.p.=.r.d.8.8.6.4.| 3.,.3.8.D.[.'.j.4.3.w.w.e.( %.w.d.d.r.<.=.^ =.7.,.<.w.5.,.T S H _ 0.m.V.V.0.' A c ",
"w.R H / K h p.p.A L F A A p d p.L F m D x m h d d d 0 q g d d h g m D H L L / L _ #.#.#.%.^ F S I ^ ,.=.R H ) %.=.e.0.=.5.0.5.%.",
"R F A F c c F p.:.%.L D ^ ^ ^ =.) H G ~ ~ ) %.;.0.w.L d 6 5 q p Z F G D A D A c d p x F ) _ _ _ d.t.V.m.1.@.R H R ^ D p D D A H ",
"/ q.<._ R L _ p.*.F c g c A =.%.S d 0 p H _ w.t._ F A c c p.H } / A L c d A F x g p p.c F @.q.e.J.m.q.C.C.e.L q q w d p q d A R ",
"p D H / D D c p.c p 0 p w h L L A d h K L A D H H r q 8 8 p.p m ^ H _ =.%._ L g c d p.A F K P %.:._ #.=.=.D F Z c F L L ) ) G m ",
"H H ) ) ) G A p.c Z h C H A D L @.#.K P K d q 5 6 2 8 d n p.l l Y Q 6.z.w._ F L L F S p.c H ^ ^ G c x q q q w w p p c F <.<.<.*.",
"8 q d A A A A p.L F T G H ^ S Q } ^ H ~ T p.p.5 8 q 8 q q p.> # O # , w A F H L L Z d p.q q p p h c c w 3 0 8 8 p 8 , 2 2 2 q 0 ",
"].Q.0.r.d.G.Y.p.}.}./.T.m.e.m.T./.~.p.p.p.G.p.p.d.d.d.d.w.p.5.%.@.=.%.=.q.p._ %.%.@./ p.d p x p c R / / F ^ %.<.F F R H ..l.s.z.",
"|./.S.F.Q.T.s.p.r.=.) _ ;.0.e.d.V.p.G.S.V.m.p.F.p.k.;./ %.p.w.%./ R H L p.H.m.0.#.=.5.p.r.<.H A A Z c c A H / @.5.s.d.A.P.}.!.Q.",
"V.V.d.r.w.d.V.p.6.3.=.0.t.r._ H T p.4.w.<./ p./ p.&.#.q.T.p.w.5.U Z d Z p.s.,.^ _ w.t.p.m.p.p.p.x A D x L 0.C.C.d.4.w.R.K.V.0.3.",
"d c F F H x p.q 8 w g c h c c d c p.A h g p p.2 p.q g p.p.p.p.p.p.8 2 ; p.w p w d d p p.p.N x d p.p.F c g c c d 0 3 q c A g w w ",
"L S c L P K p./ L / <.( / ( _ L / p.p.p.p.p.L A p.H H F p.c c A A c p q p.c g p.A c m p.p.q r c S K p.F e 6 2 p x H H ) <.*.%.q.",
"F F A / L L p.A A ^ =.*._ H c c d q 8 p c A H Z A D p c p.A c p 8 6 p H A p.p.8 g A H A c c Z L K f p.> O O % q r D D G %.<.@./ ",
"& $ = p A c p.G B g Z H H S c F A h A L =.r.' p 8 2 8 w p c A F G N G B x n x x p d p 8 5 6 w 0 < 8 q 9 a c c g c ^ } ] H F h w ",
"q 3 0 d p 2 p.; : ; 8 p g q 8 p d Z g d c D p 8 2 4 d p 6 > % = 1 3 2 % % o & 0 w % + , r c Z F h w 0 3 w q 0 w d 3 0 0 2 = 3 > ",
"g q d L H x p.g c m A g g d g p.d F / F Z S h g A c g q q p x / L @.@._ @.L / _ ) 3.j.W.).K.H.P.H.d.) ~ _ %.^ ^ ^ G D H H ^ ) A ",
"( F p p D _ p.t.:.c d p.p.p.p.q 6 q D H H c 3 , 8 0 w g A F L *./ P K %.<.<.3.| T G W ! { =.p.p.p.p.p.p.p.#.7.8.f.f.g.8.7.s.r.0.",
"n i i i x p.p.p.p.p.p.2 i 8 8 9 8 5 9 j i i x p.p p p.p.p.p., q p p.p.p.p m D N n q , & p.p.c A ^ Q ] O.X.p.p.p.< 3 0 w x x Y G ",
"=.D D x m x q p c Z c F H A g x A A c D c p i p.9 e p.5 6 p.d d p.D L ) p.p.%._ ^ A p p.S =.;.=.5.%.} ' T H p.g F 0.t.1.=._ w.r.",
"5.=.*._ *.0.<.q.t.e.%.) =.3.) ~ } 5.w.t.0.w.5.p.x p.A } =.A p.p.c H *.m.C.p.w.~ c e p.p.p.p.p.p.p.p.p.p.A p.p.A H ) <.4.r.3.=.3.",
"D H F D ^ | 4.4.5.*.L 3.C.V.0.w.V.:.1.C.R._.H.p.p.w x [ w.5.p.*.L Z d D | p.| ] ^ T p.D D D A x G ^ A c p.t 8 8 8 i D | 5.5.,.=.",
") 3.Q G O.8.s.D.t.q.1.q.<.&.#.L F F H ' w.=.) p.p.w ) d.V.G.D.d.=.H p x D p.R Z f h p.S A d e q d x G x d m G ~ F H ^ ,.d.4.) =.",
"m | 5.3.' F Z ^ 3.L D D D =.=.S w T O.Q F t 4 p.t S [ ] 3.8.s.z.s.7.w.s.=.4.} F S K K p.5.d.d.w.%.H H =.) A Z H H ^ ~ 3.7.=.H g ",
"Y.k.r.V.G.&.K P <.s.z.F.D.^.T.D.r.z.U.7./ ) =.<.7.3.T G Q | w.w.B.I.R.(.(.).R.V.0.;.@._ p.3.8.r.0.@.%.3.=._ %.,.D.Y.V.F.F.V.s.z.",
"' r.V.T.}.k./ R } s.F.G.T.V.=.=.<.5.4.| ,.%.0.m.V.d.w.~ T D x p m =.l.b.v.z.=.%.) } %._ &.p.p.p.5.e.0.5.*._ | ,.T.!.L.V.t.e.K A ",
"s.k.S.V.w.r.w.Z.T.T.{.V.@.#.r.V.T.`.c.%.w.m.m.S.G.V.^.Y.,.%.w.d.w.r.r.z.D.~.z.t.t.s.s.%.@.&.w.t.p.p.e.3.3.n.W.S.p.p.w.t.t.V.m.7.",
"3.' 3.{ G ~ ^ Q N Q 7.^ L :.=.,.} } H c A c h p 8 d H ' ~ A c D A m H L F N x q f S ^ F F A x D d w p.p.p.p.p.p.1.*.) T ^ { =.3.",
"H G H _ 5.%.L H c g p c ^ R G G ^ F H L _ L H R H R A d x H F A d d u d c d x x ^ H H D G D m x a i a n O.=.) H S H ^ T T =.<.) ",
"c L =.) %._ H A p p p d g x G L S Z f g d w s S K _ L x D D A H U #.S h A x m z p 0 g H =.' ' { =.H G H ~ H L ^ H p 5 2 8 u c h ",
"c Z f C ' V.d.5.,._ A c g h c F *.=.H H c 0 4 r f Z @.<.5.^ L =.<.V.C.5.~ H H ^ D g p A ~ H ) } ^ Z S %.w.<.0.z.8.} D h c x F F ",
"L L S h S ~ ^ H H L c m H F A F D L =.=.L c d p g D ~ | 4.| ] ] | 6.r.' N N Y G Q ] ] ' ] g w p x G ^ =.) ^ ' ' ^ ^ 3.} ^ ,.,.%.",
"H L K A g p x F A g p c F L Z A R L F x Z A L P _ %.1.*._ R A c H %./ ( L F h h c c Z A w q 2 = = 6 8 , = 2 2 3 w D L L c c F Z "
};
