/* XPM */
static char *_171c47ac71c4d20a0c3a3ecd15426a6hsmqXpSE5FgDPxIm[] = {
/* columns rows colors chars-per-pixel */
"64 64 150 2 ",
"   c #000000",
".  c #06000A",
"X  c #09000E",
"o  c #0C0013",
"O  c #12001B",
"+  c #160022",
"@  c #190026",
"#  c #1D002C",
"$  c #230034",
"%  c #260039",
"&  c #29003E",
"*  c #77162E",
"=  c #75182D",
"-  c #7C192D",
";  c #2D0044",
":  c #2F0048",
">  c #33004D",
",  c #350051",
"<  c #390056",
"1  c #3C005C",
"2  c #3F0060",
"3  c #420064",
"4  c #450069",
"5  c #49006E",
"6  c #4D0074",
"7  c #4F0078",
"8  c #51007B",
"9  c #831C2C",
"0  c #8A1B2C",
"q  c #931C2B",
"w  c #9B1D2B",
"e  c #A31E2B",
"r  c #AC1F2A",
"t  c #B21F2A",
"y  c #85212A",
"u  c #8D212B",
"i  c #9B2D25",
"p  c #95222B",
"a  c #99252A",
"s  c #9F2829",
"d  c #9F3222",
"f  c #AD2D27",
"g  c #A2232A",
"h  c #AB222A",
"j  c #A42928",
"k  c #AC2B28",
"l  c #B32E27",
"z  c #BE2A27",
"x  c #B4202A",
"c  c #BA2329",
"v  c #B42D28",
"b  c #BC2A28",
"n  c #A03321",
"m  c #B63026",
"M  c #B83126",
"N  c #BD3C20",
"B  c #BD2733",
"V  c #CD3A1F",
"C  c #D03C1F",
"Z  c #D93F1F",
"A  c #C42C27",
"S  c #CA2F27",
"D  c #C02728",
"F  c #C22928",
"G  c #C53325",
"H  c #CC3325",
"J  c #D33625",
"K  c #D33A23",
"L  c #DA3C23",
"P  c #E03F22",
"I  c #C2431C",
"U  c #C54818",
"Y  c #DF4C17",
"T  c #DD451C",
"R  c #DA481C",
"E  c #E04D17",
"W  c #E2451D",
"Q  c #E64B1B",
"!  c #EA4E1A",
"~  c #E05216",
"^  c #EE5615",
"/  c #E45912",
"(  c #EE5B11",
")  c #ED5119",
"_  c #F05715",
"`  c #F35E11",
"'  c #F15318",
"]  c #F6640D",
"[  c #FA680B",
"{  c #F86111",
"}  c #DD4021",
"|  c #E14320",
" . c #550082",
".. c #580086",
"X. c #5C008C",
"o. c #5F0090",
"O. c #620094",
"+. c #65009A",
"@. c #68009E",
"#. c #6B00A3",
"$. c #6F00A8",
"%. c #7100AC",
"&. c #7500B2",
"*. c #7800B6",
"=. c #7D00BD",
"-. c #7A00BA",
";. c #7E00C0",
":. c #7F00C1",
">. c #8000C2",
",. c #8100C4",
"<. c #8200C5",
"1. c #8200C6",
"2. c #8300C7",
"3. c #8400C9",
"4. c #8400C8",
"5. c #8500CA",
"6. c #8600CB",
"7. c #8600CC",
"8. c #8700CD",
"9. c #8800CF",
"0. c #8800CE",
"q. c #8A00D1",
"w. c #8B00D3",
"e. c #8C00D5",
"r. c #8D00D6",
"t. c #8E00D7",
"y. c #8F00D9",
"u. c #8E00D8",
"i. c #9000DB",
"p. c #9000DA",
"a. c #9100DC",
"s. c #9200DD",
"d. c #9200DE",
"f. c #9400E1",
"g. c #9500E2",
"h. c #9600E3",
"j. c #9600E4",
"k. c #9700E5",
"l. c #9800E7",
"z. c #9900E9",
"x. c #9A00EA",
"c. c #9B00EB",
"v. c #9B00EC",
"b. c #9C00ED",
"n. c #9F00F2",
"m. c #A000F3",
"M. c #A300F8",
"N. c #A400F9",
"B. c #A500FB",
"V. c #A600FC",
/* pixels */
"                                                o                                                                               ",
"                                              X O.#                                                                             ",
"                                                o                                                                               ",
"                                                                                                                                ",
"                                                                                                                                ",
"      . % & & @             o O  .X.@         . < o       @                                                                     ",
"      8 k.,.3.y.%       . 3 3.w.y.,.t...o     o 3.;     o *.% ; X.X.X.;             ; 8 o                                       ",
"    O y.8 X X @       # %.t.6 ; % . > 3.,.6 . o 7.;     o :. .a.O. .@.a.@         & y.O.o       . o                             ",
"    % f.+           O 7.#.#           o 6 9.O.o 7.;     o 9.w.8     o 9.>       . *.X.          X.%..                           ",
"    ; 3.o           6 7.o                 : l.% 7.;     # n.9.o     . %.8       O a.%         o *.6                             ",
"    ; 3.o         O t.6                   # v.& 9.;     < B.4         X.X.      + a.1           O                               ",
"    ; 3.o         @ k.@                   1 t.$ a.;     &.m.O         @...        X.y.X..                                       ",
"    $ p.$         @ f.#                 o =. .& ,.o   o c.:.        $ k.>         . 1 3.o..       .                             ",
"    . #.*.X       . &.$.o             . &.*.X % :.o   % B.4         & 7.o             < 3.o     1  ..                           ",
"      + 9.&., .     $ 3.>.&       X $ +.9.@   + ...   @ f.$         # +.. O X         6 ,.o   .  .<                             ",
"        @ O.t.>.O.@.*.$ +.t.O.> 6 ,.a.%.$       .       o             X . X.*.$ # : o.y.<       .                               ",
"            @ 6 .. .>     & #.,.=.3 @ .                                   + t.k.k.w.%.;                                         ",
"                              X X                                           o @ @ o .                                           ",
"                                                                                                                                ",
"                                                                                                                                ",
"                                                                                                                                ",
"                                                                                                                                ",
"                                                                                                                                ",
"                                                                                                                                ",
"                                                                                                                                ",
"                                                                                                                                ",
"                                                                                                                                ",
"                                                                                                                                ",
"                          &                                                                                                     ",
"              .         @ a.@                                                                                                   ",
"          < O.%.@       @ k.@                                                                                                   ",
"        4 a.+.6 .       @ k.@                                 X # #             . # # o                                         ",
"      % k.3         . # > c.@                               X :.l.f.5         o *.c.c.7.+.O                                     ",
"      O.#.          3 k.c.V.X.$ .   O # o .                 O.=.$ 3 k.>       6 *.$ $ 2 *.5     O X                             ",
"    o >.;           X # : b.,.c.6 4 y.k.w.&.&             ; k.:     ..%..     X.o.      . .   O y.p.@                           ",
"    o ,.&               $ a.@ @ 3 a.4 # ; O.a.O..       o a.%.      & w.O     X.X.            ; a.k.;                           ",
"    o =.3               ; ,.o O p.6 < .     ; 9.X..     % B.1       o w.;     X.o.            . #.3.O                           ",
"      7 f.+.> & $ .     4 *.X ; c.2 p.6 .     < 3.o     % B.1       o 3.;     7 *.$ o             X                             ",
"        : X.=.>.f.+.. o ,.4   O p.; 6 p.%., o < 3.o     % M.5       o 3.;     O =.l.7.>                                         ",
"            X X & :.6 o 7.;   . #.X.  $ O.p.7.w.O.      $ B.k.3 o $ 5 a.%       . $ X.y.<         .                             ",
"                  X...o 7.;     : k.4 .   O & & .       $ B.@.t.t.c.,.6 .              .>..     1 %.O                           ",
"                  X...o 3.;       3 a.%.o               % B.1 O & $ X                 # k.@   o ,.t.*..                         ",
"o %           O 1 w.4 . %.,         $ &.=.X             $ B.1                         < a.+     O.a.f.@                         ",
" .t.O.X.o.X.@.w.w. ..   X .           + t.%.; @ .       % B.1             @         o :.O.      . $ #                           ",
"X 5  . . . .8 > o                       @ #.t.f.+..     $ B. .          % w.1 & & ; :.&.o                                       ",
"                                          . o # +       O l.7.X            .=.:.:.:.*.O                                         ",
"                                                        . :.k.o             X X X X .                                           ",
"                                                          %.c.o                                                                 ",
"                                                          #.c.o                                                                 ",
"                                                          : :.o                                                                 ",
"r r r r x c A C E ( ] [ [ ] ( E C A c x r r h x x c c b b b B b b c x e q 9 0 a l G K K K K K K K K K K K K G l a u 0 q e r x x ",
"w w e h x F H Z Q ^ ` { { ` ^ Q Z H F x h e e h x z A H H V V H H A b h w q q a j l m M l v v v v v v v l l l k j s a g h x x x ",
"9 0 q g v H K | Q ! ) ' ' ) ! Q | K H v g q q g v G K T T Y Y T Z J H z h e w w a a a a a p p p p p p p p a a j f l l v x x x t ",
"* - 0 a v H L P | | | | | | | | P L H v a 0 0 a v H L Q ^ ( ( ^ Q L J S z x e w q 0 9 9 9 9 9 9 9 9 9 9 - 9 u s m G H H D c x t ",
"* - 0 a l G K K K K K K K K K K K K G k p 9 9 p l H } Q ^ ` ` ^ Q } J S D c r w 0 9 - - - 9 9 y y y y y 9 9 u j M H J H D c x t ",
"9 0 0 a j l m M m v v v v v v v M m f a 9 - - 0 k G K W ) _ ^ ) W K H A D c t e w 0 0 0 p p a i d n d i i a j k z H H S D c x t ",
"w w w a a a a a a a a a a a a a a a p y - = - 0 g b H K W Q Q W K H F b c c t r e w w g k l M N I U U I N M M z A A A D c x x t ",
"r r e w q 0 9 9 9 9 9 9 9 9 9 9 9 9 9 - = = - 0 w x z H K } } K H D c x x x x t r r x c A H K R ~ / / ~ R K H A D b c x x x x x ",
"x x r e q 9 - - - - - - - - - - - - - - - - 9 0 w r c F H J J H D c x t t x x t t x c D S J } Q ^ ` ` ^ Q } J S D c x t t x x x ",
"c x t e w 0 0 9 9 0 0 0 9 0 0 0 0 0 0 0 0 0 q w e r x b F S S F b x t t t x x x t x c b F H K W Q ^ ^ Q W K H F b x x t t x x x ",
"c x t r e w w w w w w w w w w w w w w w w w e e r t x c b D D b c x t t t x x x x x c c b A H K W Q Q W K H A b c x t t t x x x ",
"x x x x r r r r r r r r r r r r r r r r r r r r t x x x c c c c x x x x x x x x x x x x x c D H K } } K H D c x x x x x x x x x ",
"x x x x x x x x x x x x x x x x x x x x x x x x x x x x x x x x x x x x x x x x x x x t t x c A J L L J A c x t t x x x x x x x ",
"x x x x x x c c c c c c c c c c c c c c c c x x x x x t t t t t t x x x x x x x x x x t t t c D H K K H F c t t t x x x x x x x "
};
