/* XPM */
static char *_9cae4851a1a4a11eb520e8266417936LM8D6EKV1VyI23bJ[] = {
/* columns rows colors chars-per-pixel */
"63 64 154 2 ",
"   c black",
".  c #6F162D",
"X  c #76172D",
"o  c #7B172D",
"O  c #75182D",
"+  c #7C182D",
"@  c #85172D",
"#  c #841B2C",
"$  c #8A1B2C",
"%  c #931C2B",
"&  c #9A1C2B",
"*  c #A31E2B",
"=  c #AC1F2A",
"-  c #B31E2A",
";  c #85212A",
":  c #8C202B",
">  c #9B2D25",
",  c #95222A",
"<  c #99242A",
"1  c #9F2829",
"2  c #9F3222",
"3  c #A12627",
"4  c #AD2D27",
"5  c #A2232A",
"6  c #AB222A",
"7  c #A42828",
"8  c #AC2B28",
"9  c #BA2627",
"0  c #B22D27",
"q  c #BD2A26",
"w  c #B4202A",
"e  c #BA2429",
"r  c #B52D28",
"t  c #BC2928",
"y  c #A03321",
"u  c #B63027",
"i  c #B93126",
"p  c #BD3C20",
"a  c #CE3B1E",
"s  c #D13D1E",
"d  c #D93F1F",
"f  c #C32C26",
"g  c #C92F27",
"h  c #C02729",
"j  c #C22928",
"k  c #C92E28",
"l  c #C43324",
"z  c #CC3325",
"x  c #C73820",
"c  c #CC3920",
"v  c #D33625",
"b  c #D33923",
"n  c #DB3D23",
"m  c #E03F22",
"M  c #C2431C",
"N  c #C54818",
"B  c #DF4C17",
"V  c #D5431C",
"C  c #DD421F",
"Z  c #DE421E",
"A  c #DD441D",
"S  c #D74818",
"D  c #DA4919",
"F  c #DC4A18",
"G  c #DC4919",
"H  c #E04F15",
"J  c #E14F15",
"K  c #E04C17",
"L  c #E04D17",
"P  c #E14D17",
"I  c #E04F16",
"U  c #E14D17",
"Y  c #E0431E",
"T  c #E1441D",
"R  c #E5461D",
"E  c #E6471D",
"W  c #E7471D",
"Q  c #E5461F",
"!  c #E4461F",
"~  c #E3461D",
"^  c #E44A1A",
"/  c #E44B1A",
"(  c #E64B1B",
")  c #E74B1B",
"_  c #E54C1A",
"`  c #E74E1A",
"'  c #E54B1B",
"]  c #E84B1B",
"[  c #E94E19",
"{  c #EA4C1B",
"}  c #EB4D1B",
"|  c #EC4D1B",
" . c #EB4E1A",
".. c #E25214",
"X. c #E25115",
"o. c #E85713",
"O. c #EE5714",
"+. c #EE5715",
"@. c #EF5715",
"#. c #ED5516",
"$. c #EE5516",
"%. c #ED5615",
"&. c #E45912",
"*. c #E95813",
"=. c #EE5B11",
"-. c #EF5B11",
";. c #ED5B11",
":. c #EB5019",
">. c #ED5019",
",. c #EE5119",
"<. c #EF5119",
"1. c #ED5318",
"2. c #ED5219",
"3. c #ED5119",
"4. c #F05715",
"5. c #F35B13",
"6. c #F35E10",
"7. c #F25C12",
"8. c #F45E11",
"9. c #F45C12",
"0. c #F55D12",
"q. c #F55E12",
"w. c #F45E11",
"e. c #F15318",
"r. c #F15318",
"t. c #F2610D",
"y. c #F1600E",
"u. c #F0600F",
"i. c #F3640D",
"p. c #F4640D",
"a. c #F6640D",
"s. c #F7640D",
"d. c #F3620D",
"f. c #F9660C",
"g. c #F8660D",
"h. c #F8660C",
"j. c #FA680B",
"k. c #FA6A0A",
"l. c #FC6C09",
"z. c #FC6D09",
"x. c #FE6E08",
"c. c #FF6F08",
"v. c #FA680B",
"b. c #F76011",
"n. c #F86111",
"m. c #F86111",
"M. c #DD4021",
"N. c #DD4021",
"B. c #E14121",
"V. c #E04020",
"C. c #E14320",
"Z. c #E24420",
"A. c #E34420",
"S. c #E24320",
/* pixels */
"                                J y.l.l.l.l.l.l.l.l.y.J a q - - - w e j v n R >.0.f.f.0.>.R n z j w - = = - - - - - w w w w w ",
"                                J y.k.l.l.k.k.l.l.k.y.J a q w - - w e j z n Z.>.6.s.s.6.>.Z.n z j e w - - w w w w w w w w w w ",
"                                J -.s.f.f.s.s.f.f.s.-.J s f e - = 6 w 9 f v M.^ #.6.6.#.^ M.b z f f q q q q q 9 e w w w w w w ",
"                                ^ #.5.0.0.5.5.0.0.5.#.^ n z j w 6 * 5 6 9 l b Y { #.#._ Z b z z c a a a a a c l q w - - - w w ",
"                                R { >.>.>.>.>.>.>.>.{ R n b l r 5 % % & 6 q l b Y ] ^ Z b g f c V G J X.X.J D a l 9 - - - w w ",
"                                C.C.Z.Z.Z.Z.Z.Z.Z.Z.C.C.n n z r < $ @ $ & w q z b M.n b g j f c D *.y.i.s.y.o.D c q w - - w w ",
"                                b b b b b b b b b b b b b b l 0 < $ @ $ & = e j l z z l j q f s J -.s.k.k.s.-.J s f e w = = = ",
"                                i r r r r r r r r r r r u u 4 7 < $ $ % * = w w r r r t q f l d ^ #.0.n.n.0.#._ d z j w 6 * & ",
"                                < < < < < < < < < < < < < < < , % & & * = = = 5 5 < 3 8 t l b n R { >.e.e.>.| R C.b l r 5 % $ ",
"                                # # # # # # # # # # # # # # # % & * = w w w = * % $ : 3 r z n n C.C.Z.Z.Z.Z.C.C.m n z r < $ + ",
"                                X o + + + + + + + + + + + # $ < 6 r q j e e w * % @ $ < 0 l b b b b b b b b b b b b l 4 , # O ",
"                                o @ @ $ $ @ @ @ @ @ $ $ , , 3 4 p c a b c f q 6 & % $ , 7 0 u i u r r r r r r i i u 4 < : o . ",
"                                @ % & & & & & & & & & 5 8 0 i x V B J G C b l q 6 * & % < < < < < < < < < < < < < < , : + O . ",
"                                % * = = = = = = = = w 9 f z b G ..-.-.#.^ n v g q w * & % # # # # # # # # # # # # # @ + o O O ",
"                                & = w w w w w - - w e j g v M.^ #.6.6.#.^ M.v g j e = & % @ + o o + + + + + + + + + + + + + + ",
"                                * - w e w w w - - - e e j z b Y { #.#.:.Y b z k h e - * % $ @ @ @ @ @ @ @ @ @ @ @ @ @ @ $ $ $ ",
"                                = w w w w w w - - - - e e j g b A ^ _ Y b l k h e e w = * & & & & & & & & & & % % % & & & & & ",
"                                w w w w w w w w w w w w w e j l b M.M.b l j e e w w w - = = = = = = = = = = = = = = = = = = = ",
"                                w w w w w w w e 9 q q q q q f l v b v z j e w - - w w w w w w w w w w w e e e e q q q q e e e ",
"                                w w w - - - w q l c a a a a a c z z g j e w - - - w w w w w w w w w e e h k g z c s s c l g f ",
"                                w w w - - - 9 l s D X.X...X.G V c f j e e w w w w w w w w w w - - w e h f z b C G J J G d b v ",
"                                w w w - - w q c D o.y.s.i.y.*.G a f e w w w w w w w w w w w w - - w e j g v n ^ #.-.-.:.~ n n ",
"                                w 6 = = w e f s J -.s.k.k.s.-.J s f e w = = = = w w w w w w w - - w e j g v n ^ #.6.6.#.' M.n ",
"                                6 * * 6 w j z d _ #.0.n.n.0.#._ d l q w 6 * & * = - w - - - - - - - w e j l b A { #.#.{ A b v ",
"                                5 % % 5 r l b C.R | >.e.e.>.{ R M.b l r 5 % $ % * = w - - - - - - - - w e j g b A ^ _ A b l f ",
"                                < $ $ < r z n m C.C.Z.Z.Z.Z.C.C.n n z r < $ @ $ & = w w w w w w w w w w w e j l b M.n b l j e ",
"                                < $ $ , 4 l b b b b b b b b b b b b l 0 < $ @ $ & = w e t q q q q q q q q q f l v b v z j e w ",
"                                < % $ , 7 0 u i u r r r r r r u i u 0 7 < % % % * = w q l c a a a a a a a a a c z z g j e w - ",
"                                * & & % < < < < < < < < < < < < < < < < < & * * = = 9 l s D X.X.X.X.X.X.X.X.G V c f j e e w w ",
"                                w 6 * & % # # # # # # # # # # # # # # % & * = = - w q c D o.y.y.y.y.y.y.y.y.*.G a f e w w w w ",
"                                q q r 5 % @ + o o + + + + + + o o + @ $ & * = - w e f s J -.s.f.f.s.s.f.f.s.-.J s f e w = = = ",
"                                s s x r 3 % @ @ @ $ $ $ $ @ @ @ @ @ $ $ % & * 6 w j z d _ #.0.b.0.0.0.0.b.0.#._ d l q w 6 * & ",
"                                ..X.D a 0 5 & % & & & & & & & & & & % % $ $ % 5 r l b C.R | >.e.e.>.>.e.e.>.{ R M.b l r 5 % $ ",
"                                y.y.o.S x r = = = = = = = = = = = = * % $ @ $ < r z n m C.C.Z.Z.Z.Z.Z.Z.Z.Z.C.C.n n z r < $ + ",
"                                f.s.-.J s f e w = = = = w w w w w w = & $ @ $ < 0 l b b b b b b b b b b b b b b b b l 0 < # + ",
"                                b.0.#._ d z j w 6 * & * = w w w - - = * % $ $ , 7 0 u i u r r r r r r r r r r u i u 0 7 < $ $ ",
"                                e.>.| R C.n l 9 5 % % % * = - - - - - = * & & & < < < < < < < < < < < < < < < < < < < < < & & ",
"                                Z.Z.C.C.m n z r < $ @ $ & = w w w w w w - = * & % # # # # # # # # # # # # # # # # # $ % & * = ",
"                                b b b b b b l 0 < $ @ % * w e e q q q q e e w * % @ + o o + + + + + + + + + + o o + @ % * = w ",
"                                r r r u i u 0 7 < % % & 6 q f z c a a c z g q 6 < % @ @ @ @ @ @ @ @ @ @ @ @ @ @ @ @ $ & * - w ",
"                                < < < < < < < < & & * 6 q l b C G B B G C b l q 6 * & % % % % % % % % & & & & & & & & * = - w ",
"                                # # # # # # # % & * w q g v n ^ #.-.-.#.^ n v f 9 w = = = = = = = = = = = = = = = = = = w w w ",
"                                + + + o o + @ % & = e j g v M.^ #.6.6.#.^ M.v g j e w w e t q q q q q 9 w w w w w w w w w w w ",
"                                @ @ @ @ @ @ $ % * - e h k z b Y :.#.4.:.Y n z j e e e q l c s s s s c l q e w - w w w w w w w ",
"                                & & & & & & & * = w e e e j l b A _ _ Y b z k e e w 9 l s G X.o.o.X.G s l 9 w - - w w w w w w ",
"                                = = = = = = = = - w w w w e j l b M.M.b l j e w - w q c D o.y.s.s.y.o.D c q w - - w w w w w w ",
"                                w w w w w w w w w w w - - w e j z v v l q w 6 = - e f s J -.s.k.k.s.-.J s f e w - = = = w w w ",
"                                q e w - w w w w w - - - - - w e j k k 9 6 * & * w j z d _ #.0.n.n.0.#._ d z j w 6 & & * = - w ",
"                                l 9 w - - w w w w - - - - - - e e h e 6 & $ % 5 r l b C.R | >.e.e.>.| R C.b l r 5 % $ % * 6 w ",
"                                c q w - - w w w w w w w w w w e e e w * % @ $ < r z n m C.C.Z.Z.Z.Z.C.C.m n z r < $ @ $ & 6 w ",
"                                s f e w = = 6 w w e e e q q q q e e w * % @ $ < 0 l b b b b b b b b b b b b l 0 < : $ % * = w ",
"% & * 6 w j z d _ #.0.n.n.0.#._ d z j w 6 * * 6 w q f z c a a c z f 9 6 & % % < 7 0 u i r r r r r r r r r r 0 8 3 < < 5 6 w w ",
"@ $ % 5 r l b C.R | >.e.e.>.| R C.b l r 5 % % 5 r l b C G J J G d v l q 6 * & & < < < < , , , , , , , , , < < 7 4 0 r r w w w ",
"X + $ < r z n m C.C.Z.Z.Z.Z.C.C.C.n z r < $ $ < r z n ^ #.-.-.#.^ n v g q w 5 & % # # # # # # # # # # # + # : 1 u l z l j e w ",
"X + # < 0 l b b b b b b b b b b b b l 8 , # # , 0 z M.{ #.6.6.#.^ M.v g j e = & $ @ + + + # # ; ; ; ; ; # # : 3 i z v z j e w ",
"@ $ $ < 7 0 u i u r r r r r r i i u 4 < # o + $ 6 l b Y :.4.4.:.Y b z k h e 6 * % $ $ $ , , < > 2 y 2 2 > < 3 8 q l z g h e w ",
"& & & < < < < < < < < < < < < < < < , ; o O o $ 5 9 l b Y _ _ Y b l j e e e - = * & & 5 8 0 i p M N N M p i i t f f k h e w w ",
"= = * & % $ # # # # # # # # # # # # @ o O O + $ & w q z b M.M.b l j e e w w w - = = w e f z b G X.&.&.X.G b z f j e e w w w w ",
"w w = * % @ + o o + + + + + + + + + + o o + @ $ & = e j z v v z j e w - - w w - - w e j g v M.^ #.6.6.#.^ M.v g j e w - - w w ",
"e w - * & $ $ @ @ $ $ $ @ $ $ $ $ $ $ $ $ $ % & * = w e j g g j e e - - - w w w - w e e j z b Y { #.#.{ Y b z j e w w - - w w ",
"e w - = * & & & & & & & & & & & & & & & & & * * = - w e e j j e e w - - - w w w w w e e e k l b Y ^ ^ Y b z k e e w - - - w w ",
"w w w w = = = = = = = = = = = = = = = = = = = = - w w w e e e e w w w w w w w w w w w w w e j l b M.M.b l j e w w w w w w w w ",
"w w w w w w w w w w w w w w w w w w w w w w w w w w w w w w w w w w w w w w w w w w w - - w e f v n n v f e w - - w w w w w w ",
"w w w w w w e e e e e w e e e e e e e w e e w w w w w - - - - - - w w w w w w w w w w - - - e j z b b z j e - - - w w w w w w "
};
