/* XPM */
static char *_58e978347634d339067eebe5e0facedPUnESBeqKNF9ksAs[] = {
/* columns rows colors chars-per-pixel */
"64 64 240 2 ",
"   c #000000",
".  c #0A0601",
"X  c #010B03",
"o  c #0D0A04",
"O  c #150E02",
"+  c #051808",
"@  c #1C1203",
"#  c #191919",
"$  c #010013",
"%  c #270000",
"&  c #3C0000",
"*  c #281906",
"=  c #381D0E",
"-  c #381E11",
";  c #00270C",
":  c #033911",
">  c #083115",
",  c #3B2708",
"<  c #3B3B03",
"1  c #3E2213",
"2  c #292800",
"3  c #030734",
"4  c #262626",
"5  c #3B3B3A",
"6  c #38242C",
"7  c #23162C",
"8  c #450404",
"9  c #4F0E0A",
"0  c #650101",
"q  c #790000",
"w  c #442D08",
"e  c #473606",
"r  c #57390A",
"t  c #432414",
"y  c #492715",
"u  c #4B2917",
"i  c #4D2C1A",
"p  c #462818",
"a  c #522E1A",
"s  c #562D19",
"d  c #55311D",
"f  c #5B331E",
"g  c #62341E",
"h  c #613712",
"j  c #543321",
"k  c #5B3621",
"l  c #5D3924",
"z  c #5D3C28",
"x  c #44312F",
"c  c #613620",
"v  c #643B24",
"b  c #6A3E26",
"n  c #653E29",
"m  c #6A3F28",
"M  c #713E26",
"N  c #603E35",
"B  c #035B1C",
"V  c #004916",
"C  c #216025",
"Z  c #535105",
"A  c #68450C",
"S  c #724C0D",
"D  c #7A530E",
"F  c #6D550A",
"G  c #676500",
"H  c #6D6B15",
"J  c #5E412C",
"K  c #6C4027",
"L  c #65422B",
"P  c #6C422A",
"I  c #6D482F",
"U  c #73452C",
"Y  c #79462C",
"T  c #75482E",
"R  c #7A492E",
"E  c #714127",
"W  c #6D4832",
"Q  c #754B32",
"!  c #7C4D32",
"~  c #734933",
"^  c #7D5136",
"/  c #7C543A",
"(  c #775138",
")  c #695133",
"_  c #03054C",
"`  c #0B056A",
"'  c #2A196D",
"]  c #523449",
"[  c #03575A",
"{  c #484848",
"}  c gray36",
"|  c #515746",
" . c #777777",
".. c #6B6967",
"X. c #616B55",
"o. c #820202",
"O. c #B80101",
"+. c #AE0101",
"@. c #C90807",
"#. c #E80000",
"$. c #F30001",
"%. c #FF0000",
"&. c #FE0D0D",
"*. c #FB1A19",
"=. c #E32F2F",
"-. c #82560F",
";. c #8A5B10",
":. c #905F11",
">. c #90700B",
",. c #814B2F",
"<. c #814E32",
"1. c #835236",
"2. c #8A5336",
"3. c #845539",
"4. c #8A5639",
"5. c #85593C",
"6. c #8C5A3C",
"7. c #935639",
"8. c #935C3D",
"9. c #9A5D3E",
"0. c #925336",
"q. c #9A603F",
"w. c #8D6B34",
"e. c #A16A3E",
"r. c #8C5E41",
"t. c #845D40",
"y. c #945F40",
"u. c #9A5F40",
"i. c #8E6243",
"p. c #826346",
"a. c #956343",
"s. c #9B6444",
"d. c #9C6847",
"f. c #956949",
"g. c #9D6B4A",
"h. c #976749",
"j. c #97764A",
"k. c #9C7352",
"l. c #8D7257",
"z. c #A26545",
"x. c #A26846",
"c. c #A46C4B",
"v. c #AA6D4B",
"b. c #A96847",
"n. c #A5704E",
"m. c #AB714E",
"M. c #B1724E",
"N. c #B8734D",
"B. c #A37352",
"V. c #AB7452",
"C. c #AD7956",
"Z. c #AC7B59",
"A. c #A57A57",
"S. c #B27652",
"D. c #B47A56",
"F. c #BB7B56",
"G. c #B47D59",
"H. c #BA7E59",
"J. c #B87652",
"K. c #B36E4C",
"L. c #8F7961",
"P. c #F64D4D",
"I. c #C17C57",
"U. c #FB6363",
"Y. c #078E2B",
"T. c #01B838",
"R. c #339A2B",
"E. c #458F1F",
"W. c #7FF324",
"Q. c #039C70",
"!. c #00D641",
"~. c #0AE44B",
"^. c #2BC45A",
"/. c #949503",
"(. c #ACAC01",
"). c #B7B701",
"_. c #B0AF00",
"`. c #AD9E0F",
"'. c #CFC901",
"]. c #E9E600",
"[. c #F1EE00",
"{. c #FFFC00",
"}. c #F6F401",
"|. c #C9E40C",
" X c #B4825D",
".X c #BC825C",
"XX c #AD8964",
"oX c #BC8B64",
"OX c #B98863",
"+X c #B89471",
"@X c #96876E",
"#X c #C2845D",
"$X c #C8865E",
"%X c #C48B63",
"&X c #CB8B63",
"*X c #C38B65",
"=X c #C5926B",
"-X c #CA946B",
";X c #CD956A",
":X c #D5996E",
">X c #CC9A71",
",X c #D39D73",
"<X c #DC9D72",
"1X c #D8A678",
"2X c #CFA47E",
"3X c #E3A57A",
"4X c #0800AC",
"5X c #0801B7",
"6X c #181A9B",
"7X c #472B89",
"8X c #085DAC",
"9X c #0A00CB",
"0X c #0B00E8",
"qX c #0C01F3",
"wX c #0C00FF",
"eX c #1507EC",
"rX c #1A28C3",
"tX c #848484",
"yX c #898681",
"uX c #999998",
"iX c #B7B8B7",
"pX c #ACB1AD",
"aX c #9BAB94",
"sX c #D8B188",
"dX c #E4B686",
"fX c #E3AA83",
"gX c #FABABA",
"hX c #CFA3A3",
"jX c #ADD4B7",
"kX c #CCCDBD",
"lX c #BBD3C3",
"zX c #C7C7C7",
"xX c #DADADA",
"cX c #F6CECE",
"vX c #E8E8E8",
"bX c #F3F3F3",
"nX c #FDFDFD",
"mX c #F5FBF7",
"MX c #EFF2F0",
"NX c #E4EFE0",
/* pixels */
"<.! I k v U ! 1.! Q 8.a.B.V.v.d.a.8.x.m.g.6.s.v.x.8.<.a.c.v.s.v.J.S.a.5.5.a.8.8.2.^ Q ^ Q / ^ ! R 6.1.2.y.a.6.4.s.a.y.x.m.v.x.a.",
"U Q 3.1.U P v P Q 7.9.6.! <.! R T U P v d b 1.1.,.1.<.b c U P T R U P k c R 4.a.x.s.7.<.1.3.! R K v P v l v K R U U T P R Y U P ",
"s.s.6.4.7.6.g.s.s.u.R U Y 2.2.7.7.y.f.i.Q Q ! ! 4.9.s.1.4.x.c.c.g.g.V.g.i.r.r.i.a.a.a.k.V.n.C.v.c.n.5.! P b ! ! ! 6.8.q.6.! 1.6.",
"P P U U 1.Q Q 1.8.c.s.v.c.9.7.7.8.a.a.3.! ! U E T U b v m f d n 5.a.x.v.s.6.4.6.5./ ~ Q 3.6.6.6.3.3.Q ! ! ! 2.6.9.c.s.2.U b I U ",
"u p t y P P v U <.<.Y 4.<.1.! U ~ I L l P 1.4.6.8.s.s.1.! ! P ( t.a.6.Q 3.9.s.a.g.a.n.g.g.C.c.V.a.Q d k Q 6.a.5.3.5.6.Q n L z k ",
"Z.Z.Z.m.D.D.I.#X#Xm.s.8.1.6.3.s. XoXXXV.m.D. XC.V.V.6.P m 4.8.B.g.a.a.f.a.4.8.a.s.s.9.! ^ a.d.s.q.8.8.a.c.x.V.Z.XXC.d.4.a.V.D.C.",
"~ Q ! P v v k k b Y 2.,.Y b g c U P k d d i u 1 t t 1 t 1 t u f b R 1.T d y u y t a d a d c c c c K K l a y a f K P c c b b b P ",
"T b P v b l y t a b Y c f d s u a j i t p i a a c P P U v v l f l P T ! ! n k i d d a k P T v l f c v v c l f u t s a f c U R U ",
"P k d d j d v v f d d d k P P Q 4.8.6.2.3.1.T U ! 4.a.x.8.2.1.R P l v v d d K T Q I l v m v d p i l j i y y f l d v c c m U P v ",
"K P f j d P ! P c u 1 * = i f v v d d l b P l a u l c c c u s f u 1 1 t t d P 1.( J z k c k j j l P T R b g f g f v c l k k i a ",
"i d d t t l v P U P U U c d a d d k d d i y f b f c c c b c a i d a f v R T 1.a.L.l.p.t.k.C.=X,X,X>X.Xm.v.7.Y P P 1.^ r.5.P t 1 ",
"a f f v U 1.^ v u u f c v c l l j u t - t a f c b ,.<.c f d c U <.! P v l u y l b f d y t a b U ! P f f b U f y 1 = = u a l l k ",
"l b P ! ! m k d i u l d j b U ! 3.4.3.T ! 9.9.7.q.7.7.4.! U R 1.<.P v n P Q P y t u t = * = t t t - = 1 u d u y t y t t y s f f ",
"c v v i i u t i l v 1.1.P k i d P 1.a.4.I l u u j j p f c P P l j I 1.U v v k j J I I L L I v f s y z L ( ( I a f d l k l v P b ",
"R 8.s.d.c.a.r.Q ^ 6.3.a.6.1.i.k.g.a.Q l d d c T U U U U 1.y.3.! / j.s.7.1.! ! 6.a.4.4.! P P 3.8.s.2.3.3.6.6.! U ! R 1.1.6.i.5.Q ",
"U 1.3.y.s.8.8.4.6.Q 1.x.v.6.U I P v l l Q 3.U v l U 1.a.6.T U v P <.9.8.1.b v ! 5.i.a.6.s.m.#X$X:X&XF.v.9.6.9.9.6.Q ! 1.6.v.s.R ",
"7.v.S.z.x.V.V.m.J.u.Y ! 2.8.9.s.9.7.! R 1.a.4.U U <.s.&XJ.S.V.s.4.6.s.u.9.a.c.V.XXXXA.f.f.n.a.a.V.D.H.D.x.g.s.c.V.d.a.n.g.a.a.1.",
"I T ! <.s.z.v.K.z.9.9.Z.D..X=XoX*XF.b.0.7.V.                                                        l v P W 5.6.6.1.1.8.9.4.<.! ",
"( f. XS.J.N.I.I.v.M.F.;X-XOXXX XC.S.z.7.9.z.                                                        >X;X;X.X%X.XC.H.s.7.a.4.^ ~ ",
"<.6.5.<.2.7.7.7.2.T T 6.! c a c U R b v 1.x.      O.%.%.%.%.O.@.$.% O.%.& #.%.%.%.0 %.%.%.%.%.O.    a.a.a.a.v.m.g.d.a.4.Q U T U ",
"d n Q 4.4.1.1.! P d i l I ^ ^ 6.Q U Q Q 6.v.      +.$.q o.o.& % $.$.%.q   & @.$.8 % 0 0 %.O.0 0     I v P ! 4.1.Q Q U T Q P k u ",
"k l l n P ^ g.c.6.6.S.C.v.V.s.a.3.8.s.8.1.4.      +.%.%.%.%.9   o.%.#.      +.#.    # hX%.U.xX|     4.1.1.R P v m Q <.<.1.1.P k ",
"4.! b v v k j T 4.! ! T v v l I ^ 6.4.y.a.1.      @.&.gXgXgXhXt $.$.%.q   0 @.$.0 x bXcX%.U.nXNX>   9.s.v.q.q.1.1.<.R Y <.4.8.a.",
"c s u j n l k n b c c b <.6.8.6.6.i.r.a.s.T       =.%.%.%.%.P.*.$.% O.%.8 #.%.%.%.cXnXcX%.P.mXmX5   c f U b s t u f c c M c c v ",
"f u t t d a u u a l K ! 1.<.b d i a a i a f     . pXbXvX{ 5 zXzXtX              { mXnXxX .# lXnX5   f v T P f i a u d f d f l f ",
"s a s k l d d l f f b b b U v l c c g c a y       yXbX .. #  .pXtX              5 bXxX{ 5 # pXmX4   T 1.1.Q T Q ! 1.3.~ z i a c ",
"2.4.6.1.^ ( ) ~ U b R ! 1.a..XoXS.v.x.r.v c       ..nXvX{ { iXzXtX              o zXvX} 4 } MXzX    T 3.c.G.n.V.C.c.c.g.g.g.d.x.",
"P U Q U v d l L I P b Y 1.4.7.2.! P c a p a       } nXmXmXbXnXnX .                4 xXbXvXnXmX5     ! a.v.s.6.4.8.a.v.s.S.F.d.3.",
"5.i.3.5.a.6.3.d.H.J.v.b.x.n.n.a.h.! v k l m       5 vXMXmXxXuX .    * O . r O       { mXmXmXxX#     u.s.a.6.r.<.6.6.a.5.n.V.n.B.",
"y.1.! 8.8.<.! U 4.6.4.1.! 4.s.^ ~ 3.! U c d         4 C ^.+       , ;.r   A D *       ..~.C 5       6.8.6.9.8.s.V.V.4.! 6.b.M.m.",
"U ! ! 4.6.4.9.7.4.s.6.6.a.1.T f v 4.8.<.! 2.    5XwXwXwXwX5X9XqX6 rXwX3 0XwXwXwX` wXwXwXwXwX5X      6.3.! ! c.m.v.v.s.3.1.1.! ! ",
"d.i.Y v Q h.D..X.X#XH.v.m.x.0.7.c.V.oX*X.XI.    4XqX6X6X8X_ 3 qXqXwX`   3 9XqX] W ' ` wXrX` _       n.5.3.a.c.c.S.#X%XD.S.u.9.z.",
"C.G..XoXH.G.v.x.^ Q I n 1.2.9.v.H..XZ.Z.A.C.    4XwXwXwXwX3 @ 7XwX0X      4X0X  w -.x wX8XX         V.n.r.2.6.s.S.#X%X%XS.d.1.! ",
"D.y.6.a.7.R P 2.1.9.4.1.1.P U 2.8.4.^ 3.Q ^     4XqX_ [ Q.3 N qXqXwX`   ` 9XqX` $ , W wX8X;         n.c.y.6.s.x.v.F.S.c.V.S.V.x.",
"y.4.1.4.! ! 4.x.v.x.8.3.a.a.a.c.s.6.5.a.a.s.    5XwXwXwXwXrXeXqX$ 5XwX_ 0XwXwXwXx . 7 wX7XB         %X#XM.x.y.6.y.a.3.P 1.3.1.6.",
"a.J.m.s.y.8.s.J.c.4.! U ! 1.c.x.2.U c P 6.s.        ; !.< -.*     O O       . * D A O O H E.X       F.&X&XF.8.v v b U P v U 1.y.",
"P 4.6.a.3.3.! 1.! P c P b R 9.9.1.U R 7.9.1.        : !.< *     O -.r           O A D @ : ~.:       z.v.v.3.4.<.! 4.8.8.s.s.5.^ ",
"6.6.s.s.s.5.1.,.! <.Y R 6.1.3.9.x.z.7.9.7.U         : !.+       r S .             . A D , T.Y.      Q v v v b b P P ! 4.m.m.m.c.",
"l v U 1.1.1.1.4.8.4.r.5.6.a.2.i.g.a.6.a.r.5.        B T.X     * ;.*                   w -.Z !.;     ! b f c l l P l a d d d v c ",
"sX1XS.F..X;X>XsXdXdX1X,X#XF.#X,X1X1XdX1X1X;X    ).{.{.{.{.).'.}.F ).{.< ].{.{.{.G {.{.{.{.{.|.B     a.a.4.a.x.m.4.4.y.6.k.XX XoX",
"dX1X;X-X1X,X XH.H.c.s.s.v.S.F..X%X,X;X;X%X#X    _.}.W./.>.< F }.[.{.>.  < '.[.>.D G G {._.>.`.Y.    ! ! 1.6.a.x.V. X.X%X:XdX1X1X",
"*X%X.XG.D..X%XH.A.V.v.S.F.G.s.6.r.B.V.D.m.a.    (.{.{.{.{.F -./.{.].-.O   _.].@ D e 2 {./.  C T.X   3.Q 9.S.&X&X.XV.D.<X:X%XS.V.",
"U ! 4.4.6.Q P v l b T ! R ! ! U ! R 1.R T P     _.}.E.e Z >.F [.[.{./.  G '.[.G e ;.e {./.  B T.X   4.! T ! ! U c f v ! 1.T b b ",
"8.2.! 8.9.7.9.a.8.a.m.s.a.s.s.9.a.6.4.1.! 1.    ).{.{.{.{.'.].[.:.'.{.Z ].{.{.{.2 r >.{./.  B T.X   a.4.n k d I Q 6.6.s.m.c.x.J.",
"4.4.1.a.9.y.1.1.1.a.v.c.s.6.! ! U v l P ! 1.    + !.: , -.@   A S .           O @ . S A     V !.+   l i - = t v m 3.3.5.x.m.x.a.",
"y t u P 1.! 1.5./ T <.6.6.2.! 4.1.R 1.9.v. X    + !.: D w   , -.@             e -.* @ -.r   ; !.;   v z I ! ! T ! a.g.a.6.4.T b ",
"v f c T P d y u p u l P T v l P U <.T U ! 3.    + !.: *   . D w                 r D o * -.r X T.B   c f b v c b U f c c d u f i ",
"T v U 8.6.Q P T ! ^ 1.T T U Y U U 4.a.4.<.2.    iXnXnXnXnXkXNXbX4 iXnX5 vXnXnXnX..nXnXnXnXnXkXY.Y.  s.a.s.x.a.a.a.5.3.6.6.a.s.1.",
"s.4.I I 3.s.D.F.v.! U ! 6.2.T v k v 3.6.6.!     pXmXaXtXyXj.) bXbXnX .  5 zXbX{ 4 @X+XnXiXL.XXY.Y.  b.v.9.z.C.Z.XXXXXXZ.C. XH.S.",
"( L L L Q I L I I a t d L l l z l j z I L L     pXnXnXnXnXj.. tXnXvX      pXMX    o w.nXuX. S H Y.  a.k.l.a.U c s f c b Q Q t.5.",
"c.3.3.Q ^ Q v I ! <.! 4.6.1.T Q 1.1.! 3.! P     jXmX| j.j.5 4 bXbXnX .  } zXbX} #   x nXpX  o H R.O g.d.r.5.T T 4.S.F.M.v.s.D.H.",
"V.c.c.s.c.S.m.J.F.F.x.s.c.V.s.a.g.V.D.H.S.D.  + kXnXnXnXnXiXvXMX4 iXnX{ vXnXnXnX4   4 nXhXr , :.:.A a.1.1.! ! 1.6.s.m.V.G.V.c.V.",
"3.6.4.3.a.g.V.V.V.c.y.V.&X*XS.D.%Xv.M.&X<X3X  A D * , .                                 , ;.e :.h S 1.! Y M l l l L 3.g.V.V.n.c.",
"s.B.i.5.k.Z. X=XH.J.M.D.m.b.z.8.4.4.6.h.D.v.  w *                                         O   S :.S 5.Q U ^ 5.a.4.6.a.n..XV.s.c.",
"^ g.V.V.d.4.<.a.V.8.3.3.3.c.c.2.b r.k.i.4.M g g M 2.h.h.B.Z. XoX XC.D. Xc.V.g.4.2.7.7.x.V..X.XD.e.6.6.c.s.1.<.6.6.a.a.B.C.c.6.T ",
">XoXG.%X;Xb.7.9.m. XoX-X=X1X,X=XG.oX=XC.a.s.c.m.C.B.r.5.i.g.D.D.%X:X<X3X3X3X<X%XS.v.x.s.d.B.Z.H.S.x.x.V.c.s.x.n.=X>X*X-X-X*X XoX",
"d.G.%X,XfXoXa.y.d. X-X;X,X*Xc.v.m.V.V.g.n.x.S.#X*X.XD.a.r.3.Q P ^ c.OX+XoXoXv.x.s.g.x.s.b.F.D.D.V.F.S.V.c.s.g.B.,X1X,X*XH.F.7.1.",
" XoX-X*XD.G.D.=X,X,XfX%Xz.z.G.*X,XsXoXx.D.#X#X;X;X*X1X>Xn.x.D..XD.G.G.oX=X2XoXH.H. X Xx.z.b.D.H.H.F.F.V.B.+X2X-X%XF.D.H.H.%X#XC.",
"B.d.B.f.5.a.a.i./ i.C.a.8.v.v.n.g.g.6.! 1.! R P l U 6.d.a.1.! 3.1.! 6.8.4./ ~ v Y 2.a.4.4.1.Q 3.U b y.c.d.Z..X.XM.c.s.r.a.f.c.B.",
"6.5.6.s.V.x.9.6.! T P ! a.y.5.5.a.4.6.9.s.9.6.y.6.y.1.U Q r.4.1.U U K U ! U ~ Q a.6.6.3.5.3.^ Q L L I ( k.c.s.6.2.6.a.5.r.c.m.s.",
"! 8.v.s.x.s.6.1.P I P U T Q 5.8.2.<.Y T U b E 2.7.s.8.Q 3.3.1.6.q.z.2.R 1.Q ^ ~ P c T 6.c.d.d.f.c.6.5.6.a.6.9.a.6.I j d l K ! R ",
"! <.Y ,.d.%X.XV.n.s.1.! T R ! 4.c.c.6.6.! c g m Y <.x.m.V.a.8.c.m.%X&XV.a.6.6.a.3.T P 1.a.6.s.g.a.<.2.x.D.m.S.oXZ.g.3.R ! Q 4.4.",
"9.8.2.R 2.a.a.6.6.8.! ^ 6.4.1.4.3.8.c.c.8.! U P T 3.a.g.V.g.a.f.g.A.G.h./ / t.5.i.a.a.d.h.T b P Q 5.a.c.s.a.d.h.a.a.B.g.a.n.n.x.",
"6.9.7.1.T P Q 4.1.T P ! 4.8.<.1.y.8.4.Q <.1.9.9.s.x.M.c.s.y.1.! 6.x.a.s.9.4.R R ! ! <.1.b v d u u k l a u d d f b 4.8.9.! ! 4.<."
};
