/* XPM */
static char *d4aa435b27ed4475a32625416efdeefcpedyabRLLEiAvsDB[] = {
/* columns rows colors chars-per-pixel */
"64 64 170 2 ",
"   c #1C1117",
".  c #2E170C",
"X  c #361D0F",
"o  c #3C1E0F",
"O  c #351D12",
"+  c #3B1F10",
"@  c #3E200F",
"#  c #3E2213",
"$  c gray13",
"%  c #3B3328",
"&  c #411F0F",
"*  c #432514",
"=  c #492715",
"-  c #462817",
";  c #4B2917",
":  c #402618",
">  c #4B2718",
",  c #4D2C1A",
"<  c #522E1A",
"1  c #582E1A",
"2  c #55311E",
"3  c #5B331E",
"4  c #62351E",
"5  c #553321",
"6  c #5B3621",
"7  c #5D3924",
"8  c #483B3A",
"9  c #613620",
"0  c #643B24",
"q  c #6A3E26",
"w  c #653E29",
"e  c #693F28",
"r  c #713F27",
"t  c #5D412D",
"y  c #6C4027",
"u  c #64412A",
"i  c #6C422A",
"p  c #6F482F",
"a  c #704127",
"s  c #73452C",
"d  c #7A462C",
"f  c #75482E",
"g  c #7A492E",
"h  c #6D4731",
"j  c #6E4930",
"k  c #754B32",
"l  c #7C4D32",
"z  c #774E38",
"x  c #6D5138",
"c  c #775237",
"v  c #7D5136",
"b  c #765039",
"n  c #7C543A",
"m  c #314152",
"M  c #775C55",
"N  c #814B2E",
"B  c #814E32",
"V  c #835236",
"C  c #8A5336",
"Z  c #855539",
"A  c #8A5639",
"S  c #86593C",
"D  c #8C5A3C",
"F  c #925235",
"G  c #935639",
"H  c #935C3D",
"J  c #9A5D3D",
"K  c #96603F",
"L  c #9B603F",
"P  c #845E41",
"I  c #8C5E40",
"U  c #945F40",
"Y  c #995F40",
"T  c #8E6243",
"R  c #966546",
"E  c #946243",
"W  c #996242",
"Q  c #9D6242",
"!  c #996444",
"~  c #9E6645",
"^  c #9B6444",
"/  c #9D6847",
"(  c #90674A",
")  c #996748",
"_  c #956949",
"`  c #9E6A4A",
"'  c #996C4C",
"]  c #9C6B4A",
"[  c #9D704F",
"{  c #936F53",
"}  c #87755B",
"|  c #9D7151",
" . c #9D7A57",
".. c #A16646",
"X. c #A36645",
"o. c #A06947",
"O. c #A36947",
"+. c #A96847",
"@. c #A26A49",
"#. c #A76B48",
"$. c #A46A49",
"%. c #A76E4B",
"&. c #A76F4C",
"*. c #A46C4B",
"=. c #AB6D4A",
"-. c #AA6E4C",
";. c #AB6D4B",
":. c #B36E4C",
">. c #A6714E",
",. c #A5714E",
"<. c #AE704C",
"1. c #AB714E",
"2. c #B1724D",
"3. c #B8734D",
"4. c #A37351",
"5. c #A97754",
"6. c #AB7452",
"7. c #A67856",
"8. c #AC7956",
"9. c #AB7C5A",
"0. c #B27652",
"q. c #B87652",
"w. c #B47B55",
"e. c #BB7B56",
"r. c #B37D59",
"t. c #BA7E59",
"y. c #9B7B62",
"u. c #C27B55",
"i. c #C07F59",
"p. c #B4835D",
"a. c #BC825C",
"s. c #AD8563",
"d. c #AF8E6B",
"f. c #B38660",
"g. c #BD8661",
"h. c #B18862",
"j. c #BC8B64",
"k. c #B2896A",
"l. c #BF8F68",
"z. c #BF997A",
"x. c #C2855D",
"c. c #C48B63",
"v. c #C98B63",
"b. c #C68F69",
"n. c #C79066",
"m. c #CC9166",
"M. c #C5926A",
"N. c #CA946B",
"B. c #CE986D",
"V. c #D7976B",
"C. c #D39A6F",
"Z. c #C59771",
"A. c #CC9A71",
"S. c #D39D73",
"D. c #DA9E71",
"F. c #CFA47E",
"G. c #D3A274",
"H. c #DAA275",
"J. c #D7A779",
"K. c #D7A87C",
"L. c #DCA97A",
"P. c #D9AA80",
"I. c #DCB485",
"U. c #E3AA83",
"Y. c #E4B687",
"T. c #E9B382",
"R. c #E4BC8B",
"E. c #D1D1C2",
"W. c #F0F0DD",
"Q. c white",
/* pixels */
"B l p 6 0 s l V l k H W 4.6.-./ R H $.1.` D Q ;...H B E $.-.Q ;.q.0.E S S R H H C v k v k n v l g D V C U W D A ~ W U O.<.;.$.E ",
"s k Z V s i 0 i k G H D l B l g f s i 0 2 q V V N V B q 9 s i f g s i 6 9 g A W O.~ G B V Z l g y 0 i 0 7 0 y g s s f i g d s i ",
"! ! D A G D ` ! ~ Y g s d C C G G U _ T k k l l A H ~ V A ..$.$.] ` 5.' T I I T E R ( | 5.>.8.%.&.>.S l i q l l l D H H D l V D ",
"i i s s V k k V H $.Q -.$.J G G H E E Z l l s a f s q 0 e 3 2 w S R O.%.~ D A D S n k k Z D D D Z Z k l l l C D J $.Q C s q p s ",
"> - * = i i 0 s B B d A B V l s k p u 7 i V A D H ! ~ V l l i z I R D k Z H ~ W ` E ,.` ` 8.*.5.E k 2 6 k D E S Z S D k 0 u 7 6 ",
"9.9.9.1.w.w.i.x.x.1.~ H V D Z ~ p.j.f.5.<.w.p.8.5.5.D i e A H 4.] R R ( E A H W ~ Q H l v E / ! K H H E *.$.5.9.s.8./ A E 5.r.8.",
"k k l i 0 0 6 6 q d C N d q 4 9 s i 6 2 2 , > # * * # * # * ; 3 q g V f 2 = ; = * < 2 < 2 9 9 9 9 y y 7 < = < 3 y i 9 9 q q q s ",
"f q i 0 q 7 = * < q d 9 2 2 < ; < 5 , *             i s 0 0 7 3 7 i f l l w 6 , 2 2 < 6 i             0 9 7 3 ; = < < 3 9 s g s ",
"i 6 2 2 5 2 0 0 3 2 2 2 6 i i k A H D C             W ~ H C V g i 7 0 0 2 2 y f k p 7 0 e             , = = 3 7 2 0 9 9 e s i 0 ",
"y i 3 5 2 i l i 9 ; # . X , 3 0 0 2 2 7             9 9 9 ; < 3 > # # * * 2 i V b t 7 6 9             g q 4 3 4 3 0 9 7 6 6 , < ",
", 2 2 * * 7 0 i s i s s 9 2 < 2 2 6 2 2       8 8 8       9 < , 2 < 3 0 g f Z E y.}       8 8 8       <.;.G d i i V v I S i * # ",
"< 3 3 0 s V v 0 > > 3 9 0 9 7 7 5 ; * +       8 8 8       2 9 s B l y 0 7 ; = 7 q 3       8 8 8       3 q s 3 = @ o o ; < 7 7 6 ",
"7 q i l l e 6 2 , > 7 2 5 q s l Z A Z f       8 8 8       s g V B y 0 0 i k i = * >       8 8 8       # ; 2 ; = * = * * = < 3 3 ",
"9 0 0 , , > : , 7 0 V V i 6 , 2 i V W A       8 8 8 8 8 8                           8 8 8 8 8 8       u c n p < 3 2 7 6 7 0 i q ",
"g H ! / *.R I k v D Z E D V T  .` E k 7       8 8 8 8 8 8                           8 8 8 8 8 8       Z D D l s l g V V D T S k ",
"s V Z U ~ H H A D k V $.;.D s j i 0 7 7       8 8 8 8 8 8                           8 8 8 8 8 8       =.H D H J D k l V D %.! g ",
"G -.0.X.$.6.6.<.q.Y d l C H H Q H G l g       8 8 8 M M M M M M M M M M M M M M M M M M M M M M       e.O.` ! *.5./ E >.` R E V ",
"p f l B Q X.=.:...J H 9.w.a.M.g.b.e.+.F       8 8 8 M M M M M M M M M M M M M M M M M M M M M M       0 i h S D D V V H H A B l ",
"n ' p.0.q.3.u.u.=.2.e.B.m.f.k.p.8.0.X.G       8 8 8 M M M M M M M M M M M M M M M M M M M M M M       B.m.a.c.a.8.t.Q G W A v k ",
"B D S B C G G G C f f D l 9 < 9 s g q 0       8 8 8 M M M M M M M M M M M M M M M M M M M M M M       E E E -.1.` / E A k s f s ",
"2 w k A A V V l i 2 , 7 p v v D k p k k       8 8 8 M M M                                                   A V k k s f k i 6 > ",
"6 7 6 0 i v ` *.D D 0.8.-.6.! E Z H ..H       8 8 8 M M M                                                   i 0 e k B B V V i 6 ",
"A l q 0 0 6 5 f A l l f 0 0 7 p v D A U       8 8 8 M M M                                                   L V V B g d B A H W ",
"9 1 > 5 w 7 6 w q 9 9 q B D D D D T I E       8 8 8 M M M       W.W.W.W.W.W.W.W.W.W.W.W.W.W.W.W.W.W.W.      < * ; 3 9 9 r 9 9 0 ",
"3 ; * * 2 < ; ; < 7 y l V B q 2 , < < ,       8 8 8 M M M       W.W.W.W.W.W.W.W.W.W.W.W.W.W.W.W.W.W.W.      3 , < ; 2 3 2 3 7 3 ",
"< < < 6 7 2 2 7 3 3 q q q s 0 7 9 9 4 9       8 8 8 M M M       W.W.W.W.W.W.W.W.W.W.W.W.W.W.W.W.W.W.W.      f k l V Z k 7 , < 9 ",
"C A D V v c x k s q g l V W a.g.                                W.W.W.              W.W.W.W.W.W.            >.6.8.*.*.' ' ] / ..",
"i s k s 0 2 7 u p i q d V A G C                                 W.W.W.              W.W.W.W.W.W.            D A H W %.Q 0.e./ Z ",
"S T Z S R D Z / t.q.=.+.O.,.,.E                                 W.W.W.              W.W.W.W.W.W.            I B D D E D >.5.,.4.",
"U Z l H H B l s A D A V l A ! v         % % % % % % % % %       W.W.W.              W.W.W.W.W.W.            H ~ 5.5.A l D +.2.<.",
"s l l A D A H G A Q D D E V f 3         % % % % % % % % %       W.W.W.              W.W.W.W.W.W.            &.<.%.%.W Z V V l l ",
"/ T d 0 k ) r.a.a.x.t.%.1.O.F G         % % % % % % % % %       W.W.W.              W.W.W.W.W.W.            $.$.0.x.c.w.0.Y J X.",
"8.r.a.g.t.r.%.$.v k j w V C J %.                                W.W.W.E.E.E.E.E.E.E.W.W.W.W.W.W.E.E.E.      D ~ 0.x.c.c.w./ V l ",
"w.U D W G g i C V H A V V i s C                                 W.W.W.E.E.E.E.E.E.E.W.W.W.W.W.W.E.E.E.      W $.%.e.0.*.6.0.6.$.",
"U A V A l l A ..;.O.H Z E E E &.                                W.W.W.E.E.E.E.E.E.E.W.W.W.W.W.W.E.E.E.      U D U E Z i Z Z V D ",
"W q.<.~             l f l V &.O.C s 9 i       8 8 8 M M M                   W.W.W.W.            W.W.W.      H 0 0 q s i 0 s V U ",
"i Z D W             9 i q g H H V s g G       8 8 8 M M M                   W.W.W.W.            W.W.W.      A B l A H H ! ! S v ",
"D D ! !             d N D V Z H ..X.G J       8 8 8 M M M                   W.W.W.W.            W.W.W.      q q i i l A 1.1.1.$.",
"7 0 s V             I S D E C T ` E D R       8 8 8 M M M                   W.W.W.W.            W.W.W.      7 7 i 7 < 2 2 2 0 9 ",
"I.G.w.r.      8 8 8       e.x.S.L.J.Y.L.      8 8 8 M M M M M M                                             O.1.A A U D [ h.p.j.",
"R.L.m.N.      8 8 8       0.e.a.c.S.B.m.      8 8 8 M M M M M M                                             W ..6.p.a.n.C.T.H.G.",
"b.c.a.r.      8 8 8       r.~ D I 4.5.w.      8 8 8 M M M M M M                                             v.v.a.5.w.D.V.c.0.4.",
"s l A A       M M M 8 8 8       l g V g       8 8 8 M M M M M M M M M M M M M M M M M M M 8 8 8 $ $ $ l f l l s 9 3 0 l V f q q ",
"H C l H       M M M 8 8 8       W D A V       8 8 8 M M M M M M M M M M M M M M M M M M M 8 8 8 $ $ $ A w 6 2 p k D D ! 1.$.O.q.",
"A A V W       M M M 8 8 8       s 0 7 i       8 8 8 M M M M M M M M M M M M M M M M M M M 8 8 8 $ $ $ , O O * 0 e Z Z S $.<...W ",
"; & ; i       M M M 8 8 8 8 8 8                                 Q.Q.Q.      Q.Q.Q.Q.      Q.Q.Q.      7 p l l f l E ` ( D A g q ",
"0 3 9 s       M M M 8 8 8 8 8 8                                 Q.Q.Q.      Q.Q.Q.Q.      Q.Q.Q.      3 q q 9 q s 3 9 9 2 ; 3 , ",
"f 0 s H       M M M 8 8 8 8 8 8                                 Q.Q.Q.      Q.Q.Q.Q.      Q.Q.Q.      R ~ $.E E E S Z D D E ! V ",
"Q A p p Z ~ w.      M M M M M M 8 8 8 8       8 8 8 M M M m m m Q.Q.Q.m m m Q.Q.Q.Q.M M M Q.Q.Q.      -.J X.8.9.s.s.d.9.8.p.t.0.",
"c u u u k p u       M M M M M M 8 8 8 8       8 8 8 M M M m m m Q.Q.Q.m m m Q.Q.Q.Q.M M M Q.Q.Q.      | { ( s 9 1 3 9 q k k P S ",
"&.Z Z k v k 0       M M M M M M 8 8 8 8       8 8 8 M M M m m m Q.Q.Q.m m m Q.Q.Q.Q.M M M Q.Q.Q.      / I S f f A 0.e.2.%.~ w.r.",
"6.$.$.~ $.0.<.q.e.e.                          8 8 8 M M M m m m m m m m m m Q.Q.Q.Q.M M M M M M       V V l l V D ! 1.5.r.6.&.6.",
"Z D A Z E ] 5.5.6.$.                          8 8 8 M M M m m m m m m m m m Q.Q.Q.Q.M M M M M M       l d r 7 7 7 u Z ] 6.6.>.*.",
"! 4.T S | 9.p.M.t.q.                          8 8 8 M M M m m m m m m m m m Q.Q.Q.Q.M M M M M M       k s v S R A D E >.a.5.! &.",
"v ] 6.6./ A B E 6.H Z Z Z *.*.C q I | T       8 8 8 M M M                           M M M M M M       &.W V B D D E R 4.8.*.D f ",
"A.g.r.c.B.+.G J 1.p.j.N.N.K.S.M.r.j.Z.8.      8 8 8 M M M                           M M M M M M       6.*.~ $.>.M.A.b.N.N.b.p.j.",
"/ r.c.S.I.g.W U ` p.N.B.S.b.&.%.<.6.5.]       8 8 8 M M M                           M M M M M M       6.$.~ ] >.S.H.C.b.t.e.G V ",
"p.g.m.b.r.r.w.b.S.S.U.c...X.r.c.S.P.l.$.      8 8 8 M M M                           M M M M M M       6.4.z.F.m.x.e.w.t.t.c.x.8.",
"4./ 4._ S R E T n T 8.E H %.%.>.` ` D l       8 8 8       V l Z V v D H A n         8 8 8       s q U *./ 9.a.a.2.$.W I E _ *.4.",
"D S D ~ 6.O.H D l f i l E U S S E A D H       8 8 8       D A V s s y s l s         8 8 8       u u p c | *.! D C D E S I *.1.! ",
"l H %.! O.~ D V i p i s f k S H C B d f       8 8 8       Z V D L X.C g V k         8 8 8       *.D S D R D H E D p 5 2 7 y l g ",
"l B d N / c.a.6.>.~ V l f g l A $.*.D D             ..<.6.E H &.1.c.v.6.R D               D ! ` E B C $.r.1.0.j.9.` Z g l k A A ",
"H H C g C R E D D H l v D A V A Z H &.&.            R ] 5.] ( ( ' 7.r.) n n               f q i k S E *.! E / ) E E 4.` E >.>.$.",
"D H G V f i k A V f i l A H B V U H A k             2.$.~ U V l D O.W Q H A               0 2 ; ; 6 7 < ; 2 2 3 q A H H l l A B "
};
