/* XPM */
static char *f7e381f24d4640b69da910686c385dc3Erw9xcLzwZss47e8[] = {
/* columns rows colors chars-per-pixel */
"64 64 104 2 ",
"   c #6E152D",
".  c #75162D",
"X  c #7A172D",
"o  c #75182D",
"O  c #7C182D",
"+  c #85172D",
"@  c #841B2C",
"#  c #8B1B2C",
"$  c #941B2B",
"%  c #9A1C2B",
"&  c #A31E2B",
"*  c #AC1F2A",
"=  c #B31E2A",
"-  c #85212A",
";  c #8C202B",
":  c #9F2527",
">  c #9B2D25",
",  c #95222A",
"<  c #99242A",
"1  c #9F2829",
"2  c #9F3222",
"3  c #A12627",
"4  c #AD2D27",
"5  c #A2232A",
"6  c #AB222A",
"7  c #A42828",
"8  c #AC2A28",
"9  c #B52727",
"0  c #BA2627",
"q  c #B22D27",
"w  c #BD2A26",
"e  c #B4202A",
"r  c #BA2429",
"t  c #B52D28",
"y  c #BC2928",
"u  c #B63027",
"i  c #B93126",
"p  c #BD3C20",
"a  c #C73C1D",
"s  c #CE3B1E",
"d  c #D13D1E",
"f  c #D93F1F",
"g  c #C32C26",
"h  c #C92F27",
"j  c #C02729",
"k  c #C22928",
"l  c #C92E28",
"z  c #C53324",
"x  c #CC3325",
"c  c #C73820",
"v  c #CC3920",
"b  c #D33625",
"n  c #D33923",
"m  c #DB3D22",
"M  c #DF3F22",
"N  c #D93A24",
"B  c #D93B24",
"V  c #DC3C24",
"C  c #E03F22",
"Z  c #C2431C",
"A  c #C54818",
"S  c #DF4C17",
"D  c #D5431C",
"F  c #DD431D",
"G  c #DE421E",
"H  c #D74918",
"J  c #DA4919",
"K  c #DC4919",
"L  c #E14D17",
"P  c #E0431E",
"I  c #E3461D",
"U  c #E5461D",
"Y  c #E44A1A",
"T  c #E54B1B",
"R  c #E74B1B",
"E  c #E84B1B",
"W  c #EA4D1A",
"Q  c #EA4C1B",
"!  c #E25214",
"~  c #E35215",
"^  c #E85713",
"/  c #EF5715",
"(  c #ED5516",
")  c #E45912",
"_  c #E95813",
"`  c #EE5B11",
"'  c #EB5019",
"]  c #EE5119",
"[  c #F05715",
"{  c #F35B13",
"}  c #F35E10",
"|  c #F55E12",
" . c #F15319",
".. c #F1600E",
"X. c #F3640D",
"o. c #F6640D",
"O. c #F8660D",
"+. c #FA6A0A",
"@. c #FC6C09",
"#. c #F76011",
"$. c #F86111",
"%. c #DD4021",
"&. c #E14121",
"*. c #E24420",
/* pixels */
"e e e e e e e e e e e = = = w s L ..@.@.@.@.@.@.@.@...L s w = = = e r k b V U ] | O.O.| ] U N x k e = * * = = = = = e e e e e e ",
"e e e e e e e e e e e = = e w s L ..+.@.@.+.+.@.@.+...L s w e = = e r k x N *.' } o.o.} ' *.N x k r e = = e e e e e e e e e e e ",
"e e e e e e e e * * * * e r g d L ` o.O.O.o.o.O.O.o.` L d g r = * 6 e 0 h b %.R / } } / R %.N x h g w w w w w 0 r e e e e e e e ",
"= = = = = = * * & % & 6 9 k x m R / { | | { { | | { / R m x k 9 6 & 5 6 0 x n P W / / R F n x x x s s s s s c z w e = = = e e e ",
"= = = = = = * & $ $ $ 5 9 x n M U W ] ] ] ] ] ] ] ] W U M n x 9 5 $ $ % 6 y x n P E R F n h h x D K L ! ! L J s z 0 = = = e e e ",
"e e e e e e * % # @ # < t x N M &.&.*.*.*.*.*.*.*.*.&.&.M N x q < # @ # % e y x n %.M n h k g v J _ ..X.o...^ J c w e = = e e e ",
"w w w k k w 9 5 $ @ # < q z n n n n n n n n n n n n n n n n z q < # @ # % * r k x x x x k r g d L ` o.+.+.o.` L d g r e * * * * ",
"s s s d d s c q : $ # , 7 q i i i t t t t t t t t t t t u u 4 7 , # # $ & * e 9 9 t t y y g x f R / | $.$.| / R f x k 9 6 & % % ",
"! ! ! ! ! ! H a q 5 % % < < < < < < < < < < < < < < < < < < < , $ % % & * * * 5 5 : 3 8 y x n M U W ]  . .] W U &.n x 9 5 $ # @ ",
"............^ J c 9 & % # @ @ @ @ @ @ @ @ @ @ @ @ @ @ @ @ @ @ $ % & * e e e * & $ # ; : t x N M &.&.*.*.*.*.&.&.C N x t : # O . ",
"o.o.o.O.O.o.` L d g e % # O . . . O O O O O O O O O O O O @ # < 8 9 w k r r e & $ @ # < q z n n n n n n n n n n n n z 4 , @ .   ",
"| | | | #.| / R f x y 5 # O . . X + @ # # @ @ @ @ @ # # , , 3 4 p v s n x h y 6 % $ # , 7 q u i u t t t t t t i i u 4 : ; O     ",
"] ] ]  . .] W U &.N z 8 , O . X @ $ % % % % % % % % % 5 8 q i c D S L K F n x y 6 & % $ < < < < < < < < < < < < < < , ; O o     ",
"*.*.*.*.*.*.&.&.C N x q , @ O @ $ & * * * * * * * * e 0 g x n K ! ` ` / R M b h y e & % $ @ @ @ @ @ @ @ @ @ @ @ @ @ + O O o o o ",
"n n n n n n n n n n z q < # @ # % * e e e e e = = e r k h b %.R / } } / R %.b h k r * % $ + O O O O O O O O O O O O O O O O O O ",
"t t t t t t t u i u q 7 < $ $ % & = e r e e e = = = r r k x n P W / / ' P n x g j r = & $ # @ @ @ @ @ @ @ @ @ @ + + + @ # # # # ",
"< < < < < < < < < < < < < % % & * e e e e e e = = = = r r k h n F R R P n x k r r r e * & % % % % % % % % % % $ $ $ % % % % % % ",
"@ @ @ @ @ @ @ @ @ @ @ $ % & * = e e e e e e e e e e e e e r k x n %.%.n x k r e e e e = * * * * * * * * * * * * * * * * * * * * ",
"O O O O O O O O O O + $ % * e e e e e e e e e r 0 w w w w w g x b N b x k r e = = e e e e e e e e e e e r r r r w w w w r r r r ",
"@ @ @ @ @ @ @ + + + # $ & * e e e e e = = = e w z v s s s s s v x x h k r e = = = e e e e e e e e e r r j g h x v d d x x h h k ",
"% % % % % % % $ $ $ % & * = = e e e e = = = 0 z d J ! ! ! ! K D v h k r r e e e e e e e e e e = = e r j h x n F K L L K f n b b ",
"* * * * * * * * * * * * e e e e e e e = = e w c J ^ ..o.X..._ K s g r e e e e e e e e e e e e = = e r k h b M R / ` ` ' I M N N ",
"e e e e r r r r w w w w r r r e e 6 * * e r g d L ` o.+.+.o.` L d g r e * * * * e e e e e e e = = e r k h b M R / } } / R %.N N ",
"= e r r j g h x v d d v x h y 9 6 & & 6 9 k x f R / | $.$.| / R f x w 9 6 & % & * = e = = = = = = = e r k x n F W / / W F n b x ",
"= e r r g x n F K L L K F n z 9 5 $ $ 5 9 x n &.U W ]  . .] W U %.n x 9 5 $ # $ & * e = = = = = = = = e r k h n F R R F n x h k ",
"= e r k h b M R / ` ` / R M x 9 < # # < t x N C &.&.*.*.*.*.&.&.M N x t < # @ # % * e e e e e e e e e e e r k x n %.M n x k r r ",
"= e r k h b %.R / } } / E M x 9 < # # , 4 z n n n n n n n n n n n n z q < # @ # % * e r 0 w w w w w w w w w g x b N b x k r e = ",
"= e r r k x n F W / / W F n h 9 : $ # , 7 q u i u t t t t t t u i u q 7 < $ $ $ & * e w z v s s s s s s s s s v x x h k r e = = ",
"= e e r r k x n F R R F n h r e & % % $ < < < < < < < < < < < < < < < < < % & & * * 0 z d J ! ! ! ! ! ! ! ! K D v h k r r e e = ",
"e e e e e r k x n %.%.n x k r e e 6 & % $ @ @ @ @ @ @ @ @ @ @ @ @ @ @ $ % & * * = e w c J ^ ................_ K s g r e e e e e ",
"e e e = = e r h n M %.n x g w w w w 9 5 $ @ O X O O O O O O O O O O + # % & * = e r g d L ` o.O.O.o.o.O.O.o.` L d g r e * * * * ",
"e e e = = = r z n P R R F d s s d d c q 3 $ @ + @ # # # # @ @ @ @ @ # # $ % & 6 9 k x f R / | #.| | | | #.| / R f x w 9 6 & % % ",
"e e = = = = 0 c D ! ` ` ^ ! ! ! ! ! J a q 5 % $ % % % % % % % % % % $ $ # # $ 5 9 x n &.U W ]  . .] ]  . .] W U %.n x 9 5 $ # @ ",
"e e e = = e w v K ` o.o.o...........^ H c 9 * * * * * * * * * * * * & $ # + # : t x N C &.&.*.*.*.*.*.*.*.*.&.&.M N x t : # O . ",
"* * * * e r g d L ` o.O.O.o.o.O.O.o.` L d g r e * * * * e e e e e e * % # @ # < q z n n n n n n n n n n n n n n n n z q < @ O . ",
"$ % & 6 9 k x f R / | | | | | | #.| / R f x k 9 6 & & & * e e e = = * & $ # # , 7 q u i u t t t t t t t t t t u i u q 7 < # # @ ",
"@ # $ 5 9 x n %.U W ] ] ] ] ]  . .] W U &.N x 0 5 $ $ $ & * = = = = = * & % % % < < < < < < < < < < < < < < < < < < < < < % % % ",
". O # : t x N C &.&.*.*.*.*.*.*.*.*.&.&.C N x t : # @ # % * e e e e e e = * & % $ @ @ @ @ @ @ @ @ @ @ @ @ @ @ @ @ @ # $ % & * * ",
". O @ < q z n n n n n n n n n n n n n n n n z q < # @ $ & e r r w w w w r r e & $ @ O O O O O O O O O O O O O O O O @ $ & * e e ",
"@ # # < 7 q u i u t t t t t t t t t t u i u q 7 < $ $ % 6 y h x x s s x x h y 6 : $ @ @ + + + + + + + @ @ @ @ @ @ @ # % & = e r ",
"% % % < < < < < < < < < < < < < < < < < < < < < % % & 6 y x n F K S S K F n x y 6 & % $ $ $ $ $ $ $ $ % % % % % % % % & * = e r ",
"* * & % $ # @ @ @ @ @ @ @ @ @ @ @ @ @ @ @ @ @ $ % & e y h b M R / ` ` / R M b h 0 e * * * * * * * * * * * * * * * * * * e e e e ",
"e e * & $ @ O O O O O O O O O O O O O O O O + $ % * r k h b %.R / } } / R %.b h k r e e r y w w w w w 0 9 e e e e e e e e e e e ",
"r e = & % # @ @ @ + + + + + + @ @ @ @ @ @ @ # $ & = r j g x n P ' / / ' P n x k r r r w z v d d d d v z w r e = e e e e e e e e ",
"r e = * & % % $ $ $ $ $ $ $ $ % % % % % % % % & * e r r r k x n F R R P n x g r r e 0 z d K ! ^ ^ ! K d z 0 e = = e e e e e e e ",
"e e e e * * * * * * * * * * * * * * * * * * * * = e e e e r k x n %.%.n x k r e = e w c J ^ ..o.o...^ J c w e = = e e e e e e e ",
"e e e e e e e 9 0 w w w w w w 0 9 e e e e e e e e e e = = e r k x b b x y e 6 * = r g d L ` o.+.+.o.` L d g r e = * * * e e e e ",
"e e e = = e r w z v d d d d v z w r e = e e e e e = = = = = e r k l l 0 6 & % & e k x f R / | $.$.| / R f x k 9 6 % % & * = e e ",
"e e e = = = 0 z d K ! ^ ^ ! K d z 0 e = = e e e e = = = = = = r r r r 6 % # $ : 9 x n &.U W ]  . .] W U &.n x 9 5 $ # $ & 6 e e ",
"e e e = = e w c J ^ ..o.o...^ J c w e = = e e e e e e e e e e r r r e & $ @ # : t x N C &.&.*.*.*.*.&.&.C N x t : # @ # % 6 e e ",
"* * * * e r g d L ` o.+.+.o.` L d g r e * * 6 e e r r r w w w w r r e & $ @ # < q z n n n n n n n n n n n n z q : ; # $ & * e e ",
"$ % & 6 9 k x f R / | $.$.| / R f x k 9 6 & & 6 9 y h x x s s x x h 0 6 % $ $ < 7 q u i t t t q q q t t t t q 4 3 : : 5 6 e e e ",
"@ # $ 5 9 x n &.U W ]  . .] W U &.n x 9 5 $ $ 5 9 z n F K S L K f b x y 6 & % $ < < < < , , , , , , , , , < : 7 4 q t 9 9 e e = ",
". O # : t x N C &.&.*.*.*.*.&.&.C N x t < # # < 9 x M R / ` ` / R M b h y e & % $ @ @ @ @ @ @ @ @ @ @ @ O @ ; 1 u z x x k r e = ",
". O @ < q z n n n n n n n n n n n n z 4 , @ @ , q x %.W / } } / R %.b h k r * % # + O O O @ @ - - - - - @ @ ; 3 i x b x k r e = ",
"@ # # < 7 q u i u t t t t t t i i u 4 < @ O O # 8 z n P ' [ [ ' P n x g j r = & $ # # # , , < > 2 2 2 2 > < 3 8 w x x h j r e = ",
"% % % < < < < < < < < < < < < < < < , - O o O # 5 0 x n P R R P n x k r r r = * & % % 5 8 q i p Z A A Z p i i y g h g j r e e = ",
"* * & % $ # @ @ @ @ @ @ @ @ @ @ @ @ + O o o O # % e y x n %.%.n x k r e e e e = * * e r g x n J ! ) ) ! J n x h k r r e e e e e ",
"e e * & $ @ O O O O O O O O O O O O O O O O + # % * r k x b b x k r e = = e e = = e r k h b %.R / } } / R %.b h k r e = = e e e ",
"r e = & % # # @ @ # # # @ # # # # # # # # # $ % & * e r k h h k r e = = = e e e = e r r k x n P W / / W P n x k r e e = = e e e ",
"r e = * & % % % % % % % % % % % % % % % % % & & * = e r r k k r r e = = = e e e e e r r r g x n P R R P n x g r r e = = = e e e ",
"e e e e * * * * * * * * * * * * * * * * * * * * = e e e r r r r e e e e e e e e e e e e e r k x n %.%.n x k r e e e e e e e e e ",
"e e e e e e e e e e e e e e e e e e e e e e e e e e e e e e e e e e e e e e e e e e e = = e r h b N N b h r e = = e e e e e e e ",
"e e e e e e r r r r r e r r r r r e r e r r e e e e e = = = = = = e e e e e e e e e e = = = r k x N N x k r = = = e e e e e e e "
};
