/* XPM */
static char *_516cf5f4c734f86b00334c3c45a2cebMFLbjmFyKJGpQIe1[] = {
/* columns rows colors chars-per-pixel */
"64 64 184 2 ",
"   c #2F170C",
".  c #331B0E",
"X  c #3B1D0E",
"o  c #341D12",
"O  c #3C1F11",
"+  c #3E200F",
"@  c #3D2213",
"#  c #411F0F",
"$  c #442414",
"%  c #492715",
"&  c #452817",
"*  c #4B2917",
"=  c #442718",
"-  c #4B2718",
";  c #462A1A",
":  c #4C2C1A",
">  c #522C17",
",  c #522E1A",
"<  c #582E1A",
"1  c #55311D",
"2  c #5B331E",
"3  c #602D19",
"4  c #62341E",
"5  c #553421",
"6  c #5B3621",
"7  c #563823",
"8  c #5D3924",
"9  c #5D3C28",
"0  c #613620",
"q  c #633B24",
"w  c #6A3E26",
"e  c #653E29",
"r  c #693F28",
"t  c #713E26",
"y  c #5E412C",
"u  c #6C4027",
"i  c #65412B",
"p  c #6C422B",
"a  c #6D482F",
"s  c #714127",
"d  c #73452C",
"f  c #79462C",
"g  c #75482E",
"h  c #7A492E",
"j  c #674530",
"k  c #6D4731",
"l  c #6E4931",
"z  c #714730",
"x  c #754B32",
"c  c #7C4D32",
"v  c #774E38",
"b  c #6D5138",
"n  c #775237",
"m  c #7D5136",
"M  c #775139",
"N  c #7D553A",
"B  c #7E5A3E",
"V  c #7F6347",
"C  c #814B2F",
"Z  c #814E32",
"A  c #835236",
"S  c #8A5336",
"D  c #845539",
"F  c #8A5639",
"G  c #85593D",
"H  c #8C5A3C",
"J  c #925336",
"K  c #925639",
"L  c #935C3D",
"P  c #9A5D3E",
"I  c #96603F",
"U  c #9B603F",
"Y  c #855D41",
"T  c #8C5E41",
"R  c #935F40",
"E  c #9A5F40",
"W  c #836143",
"Q  c #8D6243",
"!  c #8D6B4B",
"~  c #946243",
"^  c #966546",
"/  c #996242",
"(  c #9D6242",
")  c #996444",
"_  c #9E6645",
"`  c #9C6847",
"'  c #956749",
"]  c #996749",
"[  c #956A4A",
"{  c #9C6B4A",
"}  c #9E6A4A",
"|  c #93714F",
" . c #9D704F",
".. c #936F53",
"X. c #87755B",
"o. c #9C7151",
"O. c #9D7A57",
"+. c #A26645",
"@. c #A16646",
"#. c #A36846",
"$. c #A96847",
"%. c #A56B49",
"&. c #A46C4B",
"*. c #A76E4B",
"=. c #AB6D4A",
"-. c #AA6D4B",
";. c #AA6E4C",
":. c #B36E4C",
">. c #A5714E",
",. c #AB714E",
"<. c #B1724E",
"1. c #B8734D",
"2. c #A37352",
"3. c #AB7452",
"4. c #A97754",
"5. c #A67855",
"6. c #AD7956",
"7. c #A47E5B",
"8. c #AB7C59",
"9. c #B37652",
"0. c #B97652",
"q. c #B37A55",
"w. c #BB7B55",
"e. c #B47D59",
"r. c #BA7E59",
"t. c #9B7B62",
"y. c #C27B55",
"u. c #C17D59",
"i. c #AC835C",
"p. c #B5825D",
"a. c #BB825C",
"s. c #AD8663",
"d. c #AC8B67",
"f. c #AF8E6B",
"g. c #B48560",
"h. c #BC8661",
"j. c #B48964",
"k. c #BC8B64",
"l. c #B28C6A",
"z. c #BF8F68",
"x. c #BF906A",
"c. c #B89570",
"v. c #BF997A",
"b. c #C2845D",
"n. c #C8855D",
"m. c #C6885D",
"M. c #C08760",
"N. c #C48B63",
"B. c #CB8C63",
"V. c #C68F69",
"C. c #C79166",
"Z. c #CC9166",
"A. c #C5936B",
"S. c #CB946B",
"D. c #CE996E",
"F. c #D39167",
"G. c #D89167",
"H. c #D3946A",
"J. c #D8956C",
"K. c #D39A6F",
"L. c #DA996D",
"P. c #C59771",
"I. c #CB9570",
"U. c #CE9B71",
"Y. c #D39D73",
"T. c #DC9D72",
"R. c #CEA077",
"E. c #CEA57C",
"W. c #D4A275",
"Q. c #D9A275",
"!. c #D5A77A",
"~. c #D7A87C",
"^. c #DCA97B",
"/. c #E2A074",
"(. c #E4A67B",
"). c #E1A97D",
"_. c #D3A982",
"`. c #D9AA80",
"'. c #DCB485",
"]. c #DDB991",
"[. c #E3AA83",
"{. c #E3B585",
"}. c #E3B78C",
"|. c #EBC090",
/* pixels */
"Z c p 6 q d c A c x L / 2.3.;.` ^ L #.,.} H ( -.@.L Z ~ %.;.( -.0.9.~ G G ^ L L S m x m x N m c h H A S R / H F _ / R #.,.-.#.~ ",
"d x D A d p q p x K L H c Z c h g d p q 1 w A A C A Z w 0 d p g h d p 6 0 h F / #._ K Z A D c h u q p q 8 q u h d d g p h f d p ",
") ) H F K H } ) _ E h d f S S K K R [ Q x x c c F L _ A F @.%.%.} } 4.} Q T T Q ~ ^ ' o.4.>.6.&.&.>.G c p w c c c H L L H c A H ",
"p p d d A x x A L %.( ;.%.P K K L ~ ~ D c c d s g d w q r 2 1 e G ^ #.&._ H F H G N x x D H H H D D x c c c S H L %.( S d w p d ",
"- & $ % p p q d Z Z f F Z A c d x a i 8 p A F H L ) _ A c c p v Y ^ H x D L _ / } ~ >.} } 6.&.4.~ x 1 6 x H ~ G D G H x e i 9 6 ",
"8.8.8.,.q.q.u.b.b.,._ L A H D _ p.k.g.4.,.q.p.6.4.4.H p r F L 2.} ^ ^ [ ~ F L / _ ( L c m ~ ` ) I L L ~ &.#.4.8.s.6.` F ~ 4.q.6.",
"x x c p q q 6 6 w f S C f w 4 0 d p 6 1 1 : - @ $ $ @ $ @ $ * 2 w h A g 1 % * % $ , 1 , 1 0 0 0 0 u u 8 , % , 2 u p 0 0 w w w d ",
"g w p q w 8 % $ , w f 0 1 1 > * , 5 : $ & : , , 0 p p d q q 8 2 8 p g c c e 6 : 1 1 , 6 p g q 8 2 0 q q 0 8 2 * % > , 2 0 d h d ",
"p 6 1 1 5 1 q q 2 1 1 1 6 p p x F L H S F A g d c F / @.L S A h p 8 q q 1 1 u g x p 8 q r q 1 ; : 8 5 : % % 2 8 1 q 0 0 r d p q ",
"u p 2 5 1 p c p 0 * @   . : 2 q q 1 1 8 w p 0 , * 8 0 0 0 * > 2 - @ @ $ $ 1 p A M y 9 6 0 6 5 5 8 p g h w 4 2 4 2 q 0 8 6 6 : , ",
": 1 1 $ $ 8 q p d p d d 0 1 , 1 1 6 1 1 : % 2 w 2 0 0 0 w 0 , : 1 , 2 q h g D ~ t.X.W Y o.6.A.U.Y.U.a.,.-.K f p p A m T G p $ @ ",
", 2 2 q d A m q - - 2 0 q 0 8 8 5 * $ O $ , 2 0 w C Z 0 2 1 q d Z c u q 8 * % 8 w 2 1 % $ , w d c p 2 2 w d 2 % + X X * , 8 8 6 ",
"8 w p c c r 6 1 : - 8 1 5 w d c D F D g c L L K U K K F c d h A Z s q q p x p % $ - $ .   X $ $ $ O . @ * 1 * % $ % $ $ % > 2 2 ",
"0 q q : : - = : 8 q A A p 6 : 1 p A / F p 8 - - 5 5 = 2 0 p p 8 5 p A d q q 6 5 y a p i i a q 1 > % 9 i n M p > 2 1 8 6 8 q p w ",
"h L ) ` &.^ T x m H D ~ H A Q O.} ~ x 8 1 1 0 g d d d d A R D x V | ) K A c c H ~ F F x p p D L ( S D D H H c d c h A A H Q G x ",
"d A D R _ L L F H x A #.-.H d l p q 8 8 x D d q 8 d A / H g d q p Z L L A w q c G Q ^ H _ ,.n.b.L.B.0.-.L H L P H x c A H &.) h ",
"K ;.0.@.#.2.3.,.0.E f c S L L ( L K c h A / F d d Z _ B.0.9.3.) F H @.E P / &.4.s.d.7.[ [ &.( ~ 4.q.r.w.#.} ) &.4.` ~ >.} ^ ~ A ",
"p g c Z ( @.-.:.@.P L 8.q.a.A.h.N.w.$.J K 3.h.p.q.r.u.u.w.D.{.|.}.~.N.r.0._ c x x x p 8 6 p x p x i 8 q p k G H H A A L L F Z c ",
"M [ p.9.0.1.y.y.-.<.w.D.Z.g.l.p.6.9.@.K P @.0.0.w.B.w.-.w.b.6.6.8.i.k.k.H.m.N.C.A.h.h.#.9.Y.H.B.b.Z.U.D.Z.a.N.a.6.r.( K / F m x ",
"Z H G Z S K K K S g g H c 0 > 0 d h w q A @.<./ c p p p A F A p 0 8 e p i q w p p 8 8 5 8 x F ) R ) ^ ~ ~ ~ ;.,.} ` ~ F x d g d ",
"1 e x F F A A c p 1 : 8 p m m H x d x x H ;.#._ ) -.~ p p H L ~ ) D p L %.@._ / c p p p q e p d g x p q p c F A x x d g x p 6 - ",
"6 8 8 e p m } &.H H 9.6.;.2.) ~ D L _ L A F ~ ~ ~ ;.n.#.c p d c n p x H F c D F A F D A A d d A L H F A A h p q r x Z Z A A p 6 ",
"F c w q q 6 5 g F c c g q q 8 p m H F R / A g A ~ ) H ~ _ L L H D x H L A c A c G T F m a 9 a x H R P ( -.U U A A Z h f Z F L / ",
"0 < - 7 e 8 6 e w 0 0 w Z H H H H Q T ~ ) g c ` 2.&.L } ` ~ ) ^ Q N p i x r g p a l a a x l B M B x 0 2 d w > $ * 2 0 0 t 0 0 q ",
"2 * $ $ 1 > * * , 8 u c A Z w 1 : , , : , 2 , , 2 2 2 > % $ $ % $ $ - - $ $ % $ @ $ $ % $ X $ , 2 8 2 q g p 2 : , * 1 2 1 2 8 2 ",
"> , > 6 8 1 1 8 2 2 w w w d q 8 0 0 4 0 > % % $ % 1 2 8 5 1 2 p q 0 w d w 5 ; : 7 p c g u 0 w p c d g A A x g x c A D l 8 : , 0 ",
"S F H A m n b x d w h c A / a.h.0.-.#.T q 0 p m B N N G ) 3.,.q.) d x x x G Y W W G T ~ L H F h w w g D &.e.>.3.6.&.&.} } } ` @.",
"p d x d q 1 8 i p p w f A F K S c p 0 , = , 2 , $ : 5 8 8 8 1 6 w p g S c p g x p p c / / L / R c d c ~ &._ H F L / &.( 9.w.` D ",
"G Q D G ^ H D ` r.0.-.$.#.>.>.~ ` c q 6 8 r q q p L #.&.~ L F L A H G ~ Q N Q 2.@.L A A _ _ ;.<.%./ E _ ~ H T Z H H ~ H >.4.>.2.",
"R D c L L Z c d F H F A c F ) m z D c d 0 1 p H F A A S H L c c w D } &.3.&.#.` L F D H _ _ @.-.-._ H L H L L _ 4.4.F c H $.<.,.",
"d c c F H F L K F ( H H ~ A g 2 q F L Z c S L _ #.-.@.F c H F c p p c ~ ,.;./ A p p F L H H @.-.@.@.H D c c &.,.&.&.) D A A c c ",
"` Q f q x ] q.a.a.b.r.&.,.#.J K &.2.h.N.a.u.N.k.e.p.q.5.l.A.b.b.Q.R.g.,.<.b.4.} ' L E E Z K ;.9.,.2.>.G D ~ %.%.9.b.N.q.9.E P @.",
"6.e.a.h.r.e.&.#.m x l e A S P &.r.a.8.8.5.4.} 2.>.2.8.A.]._.g.4.2.q.q.w.( #.q.a.a.r.,.&.~ &.6.>.,.q.3.>.T S H _ 9.b.N.N.9.` A c ",
"q.R H / K h p S A L F A A p d S L F m D x m h d d d 0 q g d d h g m D H L L / L _ @.@.@.#.~ F S I ~ >.&.R H ) #.&.w.9.&.3.9.3.#.",
"R F A F c c F @.-.#.L D ~ ~ ~ &.) H G ^ ^ ) #.;.9.q.L d 6 5 q p Z F G D A D A c d p x F ) _ _ _ a.r.N.b.<.@.R H R ~ D p D D A H ",
"/ 0.,._ R L _ 0.%.F c g c A &.#.S d 0 p H _ q.r._ F A c c H H } / A L c d A F x g p p c F @.0.w.G.b.0.B.B.w.L q q w d p q d A R ",
"p D H / D D c A c p 0 p w h L L A d h K L A D H H r q 8 8 e p m ~ H _ &.#._ L g c d d A F K P #.-._ @.&.&.D F Z c F L L ) ) G m ",
"H H _ ) ) G A C c Z f C H A D L @.@.K P K d q 5 6 1 8 d n d l l Y Q 5.k.q._ F L L F S L c H ~ ~ G c x q q q w w p p c F ,.,.,.%.",
"8 q d A A A A F L F T G H ~ S Q } ~ H ^ T G p 5 8 q 8 q q 6 : @ o @ , w A F H L L Z d p q q p p h c c w 2 0 8 8 p 8 , 1 1 1 q 0 ",
"'.W.9.e.a.D.U.`.{.{.^.Y.b.w.b.Y.^.!.{.^.W.U.W.U.a.a.a.a.q.3.3.#.@.&.#.&.0.;._ #.#.@./ F d p x p c R / / F ~ #.,.F F R H  .j.p.k.",
"}.^.Z.S.W.Y.p.r.e.&.) _ ;.9.w.a.N.Y.D.Z.N.b.N.S.I.h.;./ #.6.q.#./ R H L q.F.b.9.@.&.3.9.e.,.H A A Z c c A H / @.3.p.a.C.L.{.Q.W.",
"N.N.a.e.q.a.N.r.5.2.&.9.r.e._ H T 2.4.q.,./ @./ $.$.@.0.Y.A.q.3.U Z d Z ) p.>.~ _ q.r.B.b.6.R g x A D x L 9.B.B.a.4.q.T.H.N.9.2.",
"d c F F H x p q 8 w g c h c c d c h A h g p r 1 - q g c p p p q q 8 1 - 1 w p w d d p p p N c d g g F c g c c d 0 2 q c A g w w ",
"L S c L P K L / L / ,.( / ( _ L / H F A c A L A D H H F D c c A A c p q d c g h A c m x p q r c S K ( F e 6 1 p x H H ) ,.%.#.0.",
"F F A / L L A A A ~ &.%._ H c c d q 8 p c A H Z A D p c R A c p 8 6 p H A x q 8 g A H A c c Z L K f 8 : o o $ q r D D G #.,.@./ ",
"% # * d A c A G B g Z H H S c F A h A L &.r.` p 8 1 q w p c A F G N G B x n x x p d p 8 5 6 w 0 < 8 q 9 a c c g c ~ } ' H F h w ",
"q 2 0 d p 1 % - ; - 8 p g q 8 p d c g d c D p 8 1 4 d p 6 : $ * > 2 1 $ $ X % 0 w $ O , r c Z F h w 0 2 w w 0 w d 2 0 0 1 * 2 : ",
"g q d L H x p g c m A g g d g d d F / F Z S h g A c g q q p x / L @.@._ @.L / _ ) 2.g.E.).H.F.L.F.a.) ^ _ #.~ ~ ~ G D H H ~ ) A ",
"( F p p D _ q.r.-.c d c H F g q 6 q D H H c 2 , 8 0 w g A F L %./ P K #.,.,.2.} T G W ! [ &.&.3.,.%.$.;.P @.6.8.s.s.f.8.6.p.r.9.",
"n i i i x a i l p > $ 1 i 8 8 9 8 5 9 j i i x p p p i 1 $ % , q p 2 % , p m D N n q , % > w c A ~ Q ' o...' d 0 < 2 0 w x x Y G ",
"&.D D x m x q p c Z c F H A g x A A c D c p i 1 9 e 5 5 6 0 d d D D L ) ~ &.#._ ~ A p x S &.;.&.3.#.} ` T H g g F 9.r.<.&._ q.e.",
"3.%.%._ %.9.,.0.r.w.#.) &.2.) ^ } 3.q.r.9.q.3.~ x g A } &.A x g c H %.b.B.r.q.^ c e 5 8 p x H #.q.,.~ A A c c A H ) ,.4.e.2.&.2.",
"D H F D ~ } 4.4.3.%.L 2.B.N.9.q.N.-.<.B.T./.F.r.H w x ] q.3.e.%.L Z d D } } } ' ~ T G D D D A x G ~ A c f t 8 8 8 i D } 3.3.>.&.",
") 2.Q G o.8.p.A.r.0.<.0.,.$.@.L F F H ` q.&.) T g w ) a.N.D.A.a.&.H p x D T R Z f h F K A d e q d x G x d m G ^ F H ~ >.a.4.) &.",
"m } 3.2.` F Z ~ 2.L D D D &.&.S w T o.Q F t 4 3 t S ] ' 2.8.p.k.p.6.q.p.&.4.} F S K K @.3.a.a.q.#.H H &.) A Z H H ~ ^ 2.6.&.H g ",
"U.h.e.N.D.$.K P ,.p.k.S.A.~.Y.A.e.k.P.6./ ) &.,.6.2.T G Q } q.q.M.J.T.(.(.).T.N.9.;.@.) ` 2.8.r.9.@.#.2.&._ #.>.A.U.N.S.S.N.p.k.",
"` e.N.Y.'.h./ R } p.S.D.Y.N.&.&.,.3.4.} >.#.9.b.N.a.q.^ T D x p m &.j.c.x.k.&.#.) } #._ $.w.q.q.3.w.9.3.%._ } 2.Y.Q.K.N.r.w.K A ",
"p.h.Z.N.q.e.q.V.Y.Y.[.N.@.@.e.N.Y.`.z.#.q.b.b.Z.D.N.~.U.>.#.q.a.q.e.e.k.A.!.k.r.r.p.p.#.@.$.q.r.r.w.w.2.2.v.E.Z.M.r.q.r.r.N.b.6.",
"2.` 2.[ G ^ ~ Q N Q 6.~ L -.&.>.} } H c A c h p 8 d H ` ^ A c D A m H L F N x q f S ~ F F A x D d w R &.` 8.a.a.<.%.) T ~ [ &.2.",
"H G H _ 3.#.L H c g p c ~ R G G ~ F H L _ L H R H R A d x H F A d d u d c d x x ~ H H D G D m x i i a n o.&.) H S H ~ G T &.,.) ",
"c L &.) #._ H A p p p d g x G L S Z f g d w s S K _ L x D D A H U @.S h A x m z p 0 g H &.` ` [ &.H G H ^ H L ~ H p 5 1 8 u c h ",
"c Z f C ` N.a.3.>._ A c g h c F %.&.H H c 0 4 w f Z @.,.3.~ L &.,.N.B.3.^ H H ~ D g p A ^ H ) } ~ Z S #.q.,.9.k.8.} D h c x F F ",
"L L S h S ^ ~ H H L c m H F A F D L &.&.L c d p g D ^ } 4.} ' ' } 5.e.` N N Y G Q ' ' ` ' g w p x G ~ &.) ~ ` ` ~ ~ 2.} ~ >.>.#.",
"H L K A g p x F A g p c F L Z A R L F x Z A L P _ #.<.%._ R A c H #./ ( L F h h c c Z A w q 1 * * 6 8 , * 1 1 2 w F L L c c F Z "
};
